<svg width="254" height="44" viewBox="0 0 254 44" fill="none" xmlns="http://www.w3.org/2000/svg">
<path d="M47.4091 15V3.36364H54.4318V4.61364H48.8182V8.54545H54.0682V9.79545H48.8182V13.75H54.5227V15H47.4091ZM60.5625 15H56.9716V3.36364H60.7216C61.8504 3.36364 62.8163 3.59659 63.6193 4.0625C64.4223 4.52462 65.0379 5.18939 65.4659 6.05682C65.8939 6.92045 66.108 7.95455 66.108 9.15909C66.108 10.3712 65.892 11.4148 65.4602 12.2898C65.0284 13.161 64.3996 13.8314 63.5739 14.3011C62.7481 14.767 61.7443 15 60.5625 15ZM58.3807 13.75H60.4716C61.4337 13.75 62.2311 13.5644 62.8636 13.1932C63.4962 12.822 63.9678 12.2936 64.2784 11.608C64.589 10.9223 64.7443 10.1061 64.7443 9.15909C64.7443 8.2197 64.5909 7.41098 64.2841 6.73295C63.9773 6.05114 63.5189 5.52841 62.9091 5.16477C62.2992 4.79735 61.5398 4.61364 60.6307 4.61364H58.3807V13.75ZM76.108 3.36364H77.517V11.0682C77.517 11.8636 77.3295 12.5739 76.9545 13.1989C76.5833 13.8201 76.0587 14.3106 75.3807 14.6705C74.7027 15.0265 73.9072 15.2045 72.9943 15.2045C72.0814 15.2045 71.286 15.0265 70.608 14.6705C69.9299 14.3106 69.4034 13.8201 69.0284 13.1989C68.6572 12.5739 68.4716 11.8636 68.4716 11.0682V3.36364H69.8807V10.9545C69.8807 11.5227 70.0057 12.0284 70.2557 12.4716C70.5057 12.911 70.8617 13.2576 71.3239 13.5114C71.7898 13.7614 72.3466 13.8864 72.9943 13.8864C73.642 13.8864 74.1989 13.7614 74.6648 13.5114C75.1307 13.2576 75.4867 12.911 75.733 12.4716C75.983 12.0284 76.108 11.5227 76.108 10.9545V3.36364ZM86.6946 6.27273C86.6264 5.69697 86.3499 5.25 85.8651 4.93182C85.3802 4.61364 84.7855 4.45455 84.081 4.45455C83.5658 4.45455 83.1151 4.53788 82.7287 4.70455C82.3461 4.87121 82.0469 5.10038 81.831 5.39205C81.6188 5.68371 81.5128 6.01515 81.5128 6.38636C81.5128 6.69697 81.5866 6.96401 81.7344 7.1875C81.8859 7.4072 82.0791 7.59091 82.3139 7.73864C82.5488 7.88258 82.795 8.00189 83.0526 8.09659C83.3101 8.1875 83.5469 8.26136 83.7628 8.31818L84.9446 8.63636C85.2476 8.71591 85.5848 8.82576 85.956 8.96591C86.331 9.10606 86.6889 9.29735 87.0298 9.53977C87.3745 9.77841 87.6586 10.0852 87.8821 10.4602C88.1056 10.8352 88.2173 11.2955 88.2173 11.8409C88.2173 12.4697 88.0526 13.0379 87.723 13.5455C87.3973 14.053 86.92 14.4564 86.2912 14.7557C85.6662 15.0549 84.9067 15.2045 84.0128 15.2045C83.1795 15.2045 82.4579 15.0701 81.848 14.8011C81.242 14.5322 80.7647 14.1572 80.4162 13.6761C80.0715 13.1951 79.8764 12.6364 79.831 12H81.2855C81.3234 12.4394 81.4711 12.803 81.7287 13.0909C81.9901 13.375 82.3196 13.5871 82.7173 13.7273C83.1188 13.8636 83.5507 13.9318 84.0128 13.9318C84.5507 13.9318 85.0336 13.8447 85.4616 13.6705C85.8897 13.4924 86.2287 13.2462 86.4787 12.9318C86.7287 12.6136 86.8537 12.2424 86.8537 11.8182C86.8537 11.4318 86.7457 11.1174 86.5298 10.875C86.3139 10.6326 86.0298 10.4356 85.6776 10.2841C85.3253 10.1326 84.9446 10 84.5355 9.88636L83.1037 9.47727C82.1946 9.21591 81.4749 8.8428 80.9446 8.35795C80.4143 7.87311 80.1491 7.23864 80.1491 6.45455C80.1491 5.80303 80.3253 5.23485 80.6776 4.75C81.0336 4.26136 81.5109 3.88258 82.1094 3.61364C82.7116 3.34091 83.384 3.20455 84.1264 3.20455C84.8764 3.20455 85.5431 3.33901 86.1264 3.60795C86.7098 3.87311 87.1719 4.23674 87.5128 4.69886C87.8575 5.16098 88.0393 5.68561 88.0582 6.27273H86.6946ZM99.8977 7H98.4886C98.4053 6.5947 98.2595 6.23864 98.0511 5.93182C97.8466 5.625 97.5966 5.36742 97.3011 5.15909C97.0095 4.94697 96.6856 4.78788 96.3295 4.68182C95.9735 4.57576 95.6023 4.52273 95.2159 4.52273C94.5114 4.52273 93.8731 4.70076 93.3011 5.05682C92.733 5.41288 92.2803 5.9375 91.9432 6.63068C91.6098 7.32386 91.4432 8.17424 91.4432 9.18182C91.4432 10.1894 91.6098 11.0398 91.9432 11.733C92.2803 12.4261 92.733 12.9508 93.3011 13.3068C93.8731 13.6629 94.5114 13.8409 95.2159 13.8409C95.6023 13.8409 95.9735 13.7879 96.3295 13.6818C96.6856 13.5758 97.0095 13.4186 97.3011 13.2102C97.5966 12.9981 97.8466 12.7386 98.0511 12.4318C98.2595 12.1212 98.4053 11.7652 98.4886 11.3636H99.8977C99.7917 11.9583 99.5985 12.4905 99.3182 12.9602C99.0379 13.4299 98.6894 13.8295 98.2727 14.1591C97.8561 14.4848 97.3883 14.733 96.8693 14.9034C96.3542 15.0739 95.803 15.1591 95.2159 15.1591C94.2235 15.1591 93.3409 14.9167 92.5682 14.4318C91.7955 13.947 91.1875 13.2576 90.7443 12.3636C90.3011 11.4697 90.0795 10.4091 90.0795 9.18182C90.0795 7.95455 90.3011 6.89394 90.7443 6C91.1875 5.10606 91.7955 4.41667 92.5682 3.93182C93.3409 3.44697 94.2235 3.20455 95.2159 3.20455C95.803 3.20455 96.3542 3.28977 96.8693 3.46023C97.3883 3.63068 97.8561 3.88068 98.2727 4.21023C98.6894 4.53598 99.0379 4.93371 99.3182 5.40341C99.5985 5.86932 99.7917 6.40151 99.8977 7ZM103.584 3.36364V15H102.175V3.36364H103.584ZM106.409 15V3.36364H113.432V4.61364H107.818V8.54545H113.068V9.79545H107.818V13.75H113.523V15H106.409ZM125.199 3.36364V15H123.835L117.494 5.86364H117.381V15H115.972V3.36364H117.335L123.699 12.5227H123.812V3.36364H125.199ZM137.382 7H135.973C135.89 6.5947 135.744 6.23864 135.536 5.93182C135.331 5.625 135.081 5.36742 134.786 5.15909C134.494 4.94697 134.17 4.78788 133.814 4.68182C133.458 4.57576 133.087 4.52273 132.7 4.52273C131.996 4.52273 131.357 4.70076 130.786 5.05682C130.217 5.41288 129.765 5.9375 129.428 6.63068C129.094 7.32386 128.928 8.17424 128.928 9.18182C128.928 10.1894 129.094 11.0398 129.428 11.733C129.765 12.4261 130.217 12.9508 130.786 13.3068C131.357 13.6629 131.996 13.8409 132.7 13.8409C133.087 13.8409 133.458 13.7879 133.814 13.6818C134.17 13.5758 134.494 13.4186 134.786 13.2102C135.081 12.9981 135.331 12.7386 135.536 12.4318C135.744 12.1212 135.89 11.7652 135.973 11.3636H137.382C137.276 11.9583 137.083 12.4905 136.803 12.9602C136.522 13.4299 136.174 13.8295 135.757 14.1591C135.34 14.4848 134.873 14.733 134.354 14.9034C133.839 15.0739 133.287 15.1591 132.7 15.1591C131.708 15.1591 130.825 14.9167 130.053 14.4318C129.28 13.947 128.672 13.2576 128.229 12.3636C127.786 11.4697 127.564 10.4091 127.564 9.18182C127.564 7.95455 127.786 6.89394 128.229 6C128.672 5.10606 129.28 4.41667 130.053 3.93182C130.825 3.44697 131.708 3.20455 132.7 3.20455C133.287 3.20455 133.839 3.28977 134.354 3.46023C134.873 3.63068 135.34 3.88068 135.757 4.21023C136.174 4.53598 136.522 4.93371 136.803 5.40341C137.083 5.86932 137.276 6.40151 137.382 7ZM139.659 15V3.36364H146.682V4.61364H141.068V8.54545H146.318V9.79545H141.068V13.75H146.773V15H139.659ZM149.222 15V3.36364H153.153C154.066 3.36364 154.813 3.52841 155.392 3.85795C155.975 4.18371 156.407 4.625 156.688 5.18182C156.968 5.73864 157.108 6.35985 157.108 7.04545C157.108 7.73106 156.968 8.35417 156.688 8.91477C156.411 9.47538 155.983 9.92235 155.403 10.2557C154.824 10.5852 154.081 10.75 153.176 10.75H150.358V9.5H153.131C153.756 9.5 154.258 9.39205 154.636 9.17614C155.015 8.96023 155.29 8.66856 155.46 8.30114C155.634 7.92992 155.722 7.51136 155.722 7.04545C155.722 6.57955 155.634 6.16288 155.46 5.79545C155.29 5.42803 155.013 5.14015 154.631 4.93182C154.248 4.7197 153.741 4.61364 153.108 4.61364H150.631V15H149.222ZM159.378 15V3.36364H163.31C164.219 3.36364 164.965 3.51894 165.548 3.82955C166.132 4.13636 166.563 4.55871 166.844 5.09659C167.124 5.63447 167.264 6.24621 167.264 6.93182C167.264 7.61742 167.124 8.22538 166.844 8.75568C166.563 9.28598 166.134 9.70265 165.554 10.0057C164.974 10.3049 164.234 10.4545 163.332 10.4545H160.151V9.18182H163.287C163.908 9.18182 164.408 9.09091 164.787 8.90909C165.17 8.72727 165.446 8.4697 165.616 8.13636C165.791 7.79924 165.878 7.39773 165.878 6.93182C165.878 6.46591 165.791 6.05871 165.616 5.71023C165.442 5.36174 165.164 5.0928 164.781 4.90341C164.399 4.71023 163.893 4.61364 163.264 4.61364H160.787V15H159.378ZM164.855 9.77273L167.719 15H166.082L163.264 9.77273H164.855ZM179.43 9.18182C179.43 10.4091 179.209 11.4697 178.766 12.3636C178.322 13.2576 177.714 13.947 176.942 14.4318C176.169 14.9167 175.286 15.1591 174.294 15.1591C173.302 15.1591 172.419 14.9167 171.646 14.4318C170.874 13.947 170.266 13.2576 169.822 12.3636C169.379 11.4697 169.158 10.4091 169.158 9.18182C169.158 7.95455 169.379 6.89394 169.822 6C170.266 5.10606 170.874 4.41667 171.646 3.93182C172.419 3.44697 173.302 3.20455 174.294 3.20455C175.286 3.20455 176.169 3.44697 176.942 3.93182C177.714 4.41667 178.322 5.10606 178.766 6C179.209 6.89394 179.43 7.95455 179.43 9.18182ZM178.067 9.18182C178.067 8.17424 177.898 7.32386 177.561 6.63068C177.228 5.9375 176.775 5.41288 176.203 5.05682C175.635 4.70076 174.999 4.52273 174.294 4.52273C173.589 4.52273 172.951 4.70076 172.379 5.05682C171.811 5.41288 171.358 5.9375 171.021 6.63068C170.688 7.32386 170.521 8.17424 170.521 9.18182C170.521 10.1894 170.688 11.0398 171.021 11.733C171.358 12.4261 171.811 12.9508 172.379 13.3068C172.951 13.6629 173.589 13.8409 174.294 13.8409C174.999 13.8409 175.635 13.6629 176.203 13.3068C176.775 12.9508 177.228 12.4261 177.561 11.733C177.898 11.0398 178.067 10.1894 178.067 9.18182Z" fill="black"/>
<path d="M46.483 22.5085V21.7273H51.9375V22.5085H49.6506V29H48.7699V22.5085H46.483ZM52.6167 29V23.5455H54.8468C55.4339 23.5455 55.9003 23.678 56.2459 23.9432C56.5916 24.2083 56.7644 24.5587 56.7644 24.9943C56.7644 25.3258 56.6661 25.5826 56.4696 25.7649C56.2731 25.9448 56.021 26.0668 55.7132 26.1307C55.9145 26.1591 56.1098 26.2301 56.2992 26.3438C56.4909 26.4574 56.6496 26.6136 56.775 26.8125C56.9005 27.009 56.9632 27.2505 56.9632 27.5369C56.9632 27.8163 56.8922 28.0661 56.7502 28.2862C56.6081 28.5064 56.4045 28.6804 56.1394 28.8082C55.8742 28.9361 55.557 29 55.1877 29H52.6167ZM53.4121 28.233H55.1877C55.4765 28.233 55.7026 28.1643 55.8659 28.027C56.0293 27.8897 56.111 27.7027 56.111 27.4659C56.111 27.1842 56.0293 26.9628 55.8659 26.8018C55.7026 26.6385 55.4765 26.5568 55.1877 26.5568H53.4121V28.233ZM53.4121 25.8324H54.8468C55.0717 25.8324 55.2646 25.8016 55.4256 25.7401C55.5866 25.6761 55.7097 25.5862 55.7949 25.4702C55.8825 25.3518 55.9263 25.2121 55.9263 25.0511C55.9263 24.8215 55.8304 24.6416 55.6387 24.5114C55.4469 24.3788 55.1829 24.3125 54.8468 24.3125H53.4121V25.8324ZM60.4478 29.1136C59.9554 29.1136 59.5233 28.9964 59.1516 28.7621C58.7823 28.5277 58.4935 28.1998 58.2852 27.7784C58.0792 27.357 57.9762 26.8646 57.9762 26.3011C57.9762 25.733 58.0792 25.237 58.2852 24.8132C58.4935 24.3894 58.7823 24.0604 59.1516 23.826C59.5233 23.5916 59.9554 23.4744 60.4478 23.4744C60.9402 23.4744 61.3711 23.5916 61.7404 23.826C62.1121 24.0604 62.4009 24.3894 62.6069 24.8132C62.8152 25.237 62.9194 25.733 62.9194 26.3011C62.9194 26.8646 62.8152 27.357 62.6069 27.7784C62.4009 28.1998 62.1121 28.5277 61.7404 28.7621C61.3711 28.9964 60.9402 29.1136 60.4478 29.1136ZM60.4478 28.3608C60.8219 28.3608 61.1296 28.2649 61.3711 28.0732C61.6126 27.8814 61.7913 27.6293 61.9073 27.3168C62.0233 27.0043 62.0813 26.6657 62.0813 26.3011C62.0813 25.9366 62.0233 25.5968 61.9073 25.282C61.7913 24.9671 61.6126 24.7126 61.3711 24.5185C61.1296 24.3243 60.8219 24.2273 60.4478 24.2273C60.0737 24.2273 59.766 24.3243 59.5245 24.5185C59.283 24.7126 59.1043 24.9671 58.9883 25.282C58.8723 25.5968 58.8143 25.9366 58.8143 26.3011C58.8143 26.6657 58.8723 27.0043 58.9883 27.3168C59.1043 27.6293 59.283 27.8814 59.5245 28.0732C59.766 28.2649 60.0737 28.3608 60.4478 28.3608ZM65.0368 27.7642L67.6646 23.5455H68.6305V29H67.7924V24.7812L65.1788 29H64.1987V23.5455H65.0368V27.7642ZM67.1106 21.7273H67.8919C67.8919 22.1108 67.7593 22.4245 67.4941 22.6683C67.229 22.9122 66.8691 23.0341 66.4146 23.0341C65.9672 23.0341 65.6109 22.9122 65.3457 22.6683C65.0829 22.4245 64.9515 22.1108 64.9515 21.7273H65.7328C65.7328 21.9119 65.7837 22.0741 65.8855 22.2138C65.9896 22.3535 66.166 22.4233 66.4146 22.4233C66.6632 22.4233 66.8407 22.3535 66.9473 22.2138C67.0562 22.0741 67.1106 21.9119 67.1106 21.7273ZM73.8161 27.7642L76.4439 23.5455H77.4098V29H76.5717V24.7812L73.9581 29H72.978V23.5455H73.8161V27.7642ZM82.5953 25.8892V26.6705H79.584V25.8892H82.5953ZM79.7828 23.5455V29H78.9448V23.5455H79.7828ZM83.2346 23.5455V29H82.3965V23.5455H83.2346ZM86.981 29.1136C86.4696 29.1136 86.0293 28.9929 85.66 28.7514C85.2907 28.5099 85.0066 28.1773 84.8077 27.7536C84.6088 27.3298 84.5094 26.8456 84.5094 26.3011C84.5094 25.7472 84.6112 25.2583 84.8148 24.8345C85.0208 24.4084 85.3072 24.0758 85.6742 23.8366C86.0435 23.5952 86.4744 23.4744 86.9668 23.4744C87.3503 23.4744 87.696 23.5455 88.0037 23.6875C88.3115 23.8295 88.5636 24.0284 88.7601 24.2841C88.9566 24.5398 89.0785 24.8381 89.1259 25.179H88.2878C88.2239 24.9304 88.0819 24.7102 87.8617 24.5185C87.6439 24.3243 87.3503 24.2273 86.981 24.2273C86.6543 24.2273 86.3678 24.3125 86.1216 24.483C85.8778 24.651 85.6872 24.889 85.5499 25.1967C85.415 25.5021 85.3475 25.8608 85.3475 26.2727C85.3475 26.6941 85.4138 27.0611 85.5463 27.3736C85.6813 27.6861 85.8707 27.9287 86.1145 28.1016C86.3607 28.2744 86.6496 28.3608 86.981 28.3608C87.1988 28.3608 87.3965 28.3229 87.574 28.2472C87.7516 28.1714 87.9019 28.0625 88.025 27.9205C88.1481 27.7784 88.2357 27.608 88.2878 27.4091H89.1259C89.0785 27.7311 88.9614 28.0211 88.7743 28.2791C88.5897 28.5348 88.3446 28.7384 88.0392 28.8899C87.7362 29.0391 87.3835 29.1136 86.981 29.1136ZM89.9213 24.3267V23.5455H94.3532V24.3267H92.5634V29H91.7253V24.3267H89.9213ZM95.5756 31.0455V23.5455H96.3853V24.4119H96.4847C96.5463 24.3172 96.6315 24.1965 96.7404 24.0497C96.8517 23.9006 97.0103 23.768 97.2163 23.652C97.4246 23.5336 97.7063 23.4744 98.0614 23.4744C98.5207 23.4744 98.9255 23.5893 99.2759 23.8189C99.6263 24.0485 99.8997 24.3741 100.096 24.7955C100.293 25.2169 100.391 25.714 100.391 26.2869C100.391 26.8646 100.293 27.3653 100.096 27.7891C99.8997 28.2105 99.6275 28.5372 99.2795 28.7692C98.9315 28.9988 98.5302 29.1136 98.0756 29.1136C97.7253 29.1136 97.4447 29.0556 97.234 28.9396C97.0233 28.8213 96.8612 28.6875 96.7475 28.5384C96.6339 28.3868 96.5463 28.2614 96.4847 28.1619H96.4137V31.0455H95.5756ZM96.3995 26.2727C96.3995 26.6847 96.4599 27.0481 96.5806 27.3629C96.7013 27.6754 96.8777 27.9205 97.1097 28.098C97.3417 28.2732 97.6258 28.3608 97.962 28.3608C98.3124 28.3608 98.6048 28.2685 98.8391 28.0838C99.0759 27.8968 99.2534 27.6458 99.3718 27.331C99.4925 27.0137 99.5529 26.661 99.5529 26.2727C99.5529 25.8892 99.4937 25.5436 99.3754 25.2358C99.2594 24.9257 99.083 24.6806 98.8462 24.5007C98.6119 24.3184 98.3171 24.2273 97.962 24.2273C97.6211 24.2273 97.3346 24.3137 97.1026 24.4865C96.8706 24.657 96.6954 24.8961 96.5771 25.2038C96.4587 25.5092 96.3995 25.8655 96.3995 26.2727ZM102.014 31.0455C101.872 31.0455 101.745 31.0336 101.634 31.0099C101.523 30.9886 101.446 30.9673 101.403 30.946L101.616 30.2074C101.82 30.2595 102 30.2784 102.156 30.2642C102.312 30.25 102.451 30.1802 102.571 30.0547C102.694 29.9316 102.807 29.7315 102.909 29.4545L103.065 29.0284L101.048 23.5455H101.957L103.463 27.892H103.52L105.025 23.5455H105.934L103.619 29.7955C103.515 30.0772 103.386 30.3104 103.232 30.495C103.078 30.6821 102.899 30.8205 102.696 30.9105C102.494 31.0005 102.267 31.0455 102.014 31.0455ZM110.023 27.8636L111.927 23.5455H112.722L110.364 29H109.683L107.367 23.5455H108.148L110.023 27.8636ZM107.879 23.5455V29H107.04V23.5455H107.879ZM112.168 29V23.5455H113.006V29H112.168ZM116.827 29.1136C116.302 29.1136 115.848 28.9976 115.467 28.7656C115.089 28.5312 114.796 28.2045 114.59 27.7855C114.387 27.3641 114.285 26.8741 114.285 26.3153C114.285 25.7566 114.387 25.2642 114.59 24.8381C114.796 24.4096 115.083 24.0758 115.45 23.8366C115.819 23.5952 116.25 23.4744 116.742 23.4744C117.026 23.4744 117.307 23.5218 117.584 23.6165C117.861 23.7112 118.113 23.8651 118.34 24.0781C118.567 24.2888 118.749 24.5682 118.884 24.9162C119.018 25.2642 119.086 25.6927 119.086 26.2017V26.5568H114.881V25.8324H118.234C118.234 25.5246 118.172 25.25 118.049 25.0085C117.928 24.767 117.755 24.5765 117.531 24.4368C117.308 24.2971 117.045 24.2273 116.742 24.2273C116.408 24.2273 116.12 24.3101 115.876 24.4759C115.634 24.6392 115.448 24.8523 115.318 25.1151C115.188 25.3778 115.123 25.6596 115.123 25.9602V26.4432C115.123 26.8551 115.194 27.2043 115.336 27.4908C115.48 27.7749 115.68 27.9915 115.936 28.1406C116.192 28.2874 116.489 28.3608 116.827 28.3608C117.048 28.3608 117.246 28.33 117.424 28.2685C117.604 28.2045 117.759 28.1098 117.889 27.9844C118.019 27.8565 118.12 27.6979 118.191 27.5085L119.001 27.7358C118.915 28.0104 118.772 28.2519 118.571 28.4602C118.37 28.6662 118.121 28.8272 117.825 28.9432C117.529 29.0568 117.197 29.1136 116.827 29.1136ZM124.011 25.8892V26.6705H121V25.8892H124.011ZM121.199 23.5455V29H120.361V23.5455H121.199ZM124.651 23.5455V29H123.812V23.5455H124.651ZM125.439 24.3267V23.5455H129.871V24.3267H128.081V29H127.243V24.3267H125.439ZM133.906 29V23.5455H138.195V29H137.357V24.3267H134.744V29H133.906ZM141.942 29.1136C141.45 29.1136 141.017 28.9964 140.646 28.7621C140.276 28.5277 139.988 28.1998 139.779 27.7784C139.573 27.357 139.47 26.8646 139.47 26.3011C139.47 25.733 139.573 25.237 139.779 24.8132C139.988 24.3894 140.276 24.0604 140.646 23.826C141.017 23.5916 141.45 23.4744 141.942 23.4744C142.434 23.4744 142.865 23.5916 143.235 23.826C143.606 24.0604 143.895 24.3894 144.101 24.8132C144.309 25.237 144.414 25.733 144.414 26.3011C144.414 26.8646 144.309 27.357 144.101 27.7784C143.895 28.1998 143.606 28.5277 143.235 28.7621C142.865 28.9964 142.434 29.1136 141.942 29.1136ZM141.942 28.3608C142.316 28.3608 142.624 28.2649 142.865 28.0732C143.107 27.8814 143.285 27.6293 143.401 27.3168C143.517 27.0043 143.575 26.6657 143.575 26.3011C143.575 25.9366 143.517 25.5968 143.401 25.282C143.285 24.9671 143.107 24.7126 142.865 24.5185C142.624 24.3243 142.316 24.2273 141.942 24.2273C141.568 24.2273 141.26 24.3243 141.019 24.5185C140.777 24.7126 140.598 24.9671 140.482 25.282C140.366 25.5968 140.308 25.9366 140.308 26.3011C140.308 26.6657 140.366 27.0043 140.482 27.3168C140.598 27.6293 140.777 27.8814 141.019 28.0732C141.26 28.2649 141.568 28.3608 141.942 28.3608ZM146.531 27.7642L149.159 23.5455H150.125V29H149.287V24.7812L146.673 29H145.693V23.5455H146.531V27.7642ZM153.876 29.1136C153.364 29.1136 152.924 28.9929 152.555 28.7514C152.185 28.5099 151.901 28.1773 151.702 27.7536C151.503 27.3298 151.404 26.8456 151.404 26.3011C151.404 25.7472 151.506 25.2583 151.709 24.8345C151.915 24.4084 152.202 24.0758 152.569 23.8366C152.938 23.5952 153.369 23.4744 153.861 23.4744C154.245 23.4744 154.59 23.5455 154.898 23.6875C155.206 23.8295 155.458 24.0284 155.655 24.2841C155.851 24.5398 155.973 24.8381 156.02 25.179H155.182C155.118 24.9304 154.976 24.7102 154.756 24.5185C154.538 24.3243 154.245 24.2273 153.876 24.2273C153.549 24.2273 153.262 24.3125 153.016 24.483C152.772 24.651 152.582 24.889 152.444 25.1967C152.309 25.5021 152.242 25.8608 152.242 26.2727C152.242 26.6941 152.308 27.0611 152.441 27.3736C152.576 27.6861 152.765 27.9287 153.009 28.1016C153.255 28.2744 153.544 28.3608 153.876 28.3608C154.093 28.3608 154.291 28.3229 154.469 28.2472C154.646 28.1714 154.796 28.0625 154.92 27.9205C155.043 27.7784 155.13 27.608 155.182 27.4091H156.02C155.973 27.7311 155.856 28.0211 155.669 28.2791C155.484 28.5348 155.239 28.7384 154.934 28.8899C154.631 29.0391 154.278 29.1136 153.876 29.1136ZM157.246 29V23.5455H158.084V25.9176H158.638L160.598 23.5455H161.677L159.476 26.1733L161.706 29H160.626L158.836 26.6989H158.084V29H157.246ZM164.222 29.1278C163.876 29.1278 163.562 29.0627 163.281 28.9325C162.999 28.8 162.775 28.6094 162.61 28.3608C162.444 28.1098 162.361 27.8068 162.361 27.4517C162.361 27.1392 162.423 26.8859 162.546 26.6918C162.669 26.4953 162.833 26.3414 163.039 26.2301C163.245 26.1188 163.472 26.036 163.721 25.9815C163.972 25.9247 164.224 25.8797 164.477 25.8466C164.809 25.804 165.078 25.772 165.284 25.7507C165.492 25.727 165.643 25.688 165.738 25.6335C165.835 25.5791 165.884 25.4844 165.884 25.3494V25.321C165.884 24.9706 165.788 24.6984 165.596 24.5043C165.407 24.3101 165.119 24.2131 164.733 24.2131C164.333 24.2131 164.019 24.3007 163.792 24.4759C163.565 24.651 163.405 24.8381 163.313 25.0369L162.517 24.7528C162.659 24.4214 162.849 24.1634 163.085 23.9787C163.325 23.7917 163.585 23.6615 163.867 23.5881C164.151 23.5123 164.43 23.4744 164.705 23.4744C164.88 23.4744 165.081 23.4957 165.308 23.5384C165.538 23.5786 165.759 23.6626 165.972 23.7905C166.188 23.9183 166.367 24.1113 166.509 24.3693C166.651 24.6274 166.722 24.973 166.722 25.4062V29H165.884V28.2614H165.841C165.784 28.3797 165.69 28.5064 165.557 28.6413C165.424 28.7763 165.248 28.8911 165.028 28.9858C164.808 29.0805 164.539 29.1278 164.222 29.1278ZM164.35 28.375C164.681 28.375 164.96 28.3099 165.188 28.1797C165.417 28.0495 165.59 27.8814 165.706 27.6754C165.825 27.4695 165.884 27.2528 165.884 27.0256V26.2585C165.848 26.3011 165.77 26.3402 165.649 26.3757C165.531 26.4089 165.394 26.4384 165.237 26.4645C165.084 26.4882 164.933 26.5095 164.786 26.5284C164.642 26.545 164.525 26.5592 164.435 26.571C164.217 26.5994 164.013 26.6456 163.824 26.7095C163.637 26.7711 163.485 26.8646 163.369 26.9901C163.256 27.1132 163.199 27.2812 163.199 27.4943C163.199 27.7855 163.307 28.0057 163.522 28.1548C163.74 28.3016 164.016 28.375 164.35 28.375ZM171.902 27.7642L174.53 23.5455H175.496V29H174.658V24.7812L172.044 29H171.064V23.5455H171.902V27.7642ZM180.681 25.8892V26.6705H177.67V25.8892H180.681ZM177.869 23.5455V29H177.031V23.5455H177.869ZM181.32 23.5455V29H180.482V23.5455H181.32ZM186.502 25.8892V26.6705H183.49V25.8892H186.502ZM183.689 23.5455V29H182.851V23.5455H183.689ZM187.141 23.5455V29H186.303V23.5455H187.141ZM190.887 29.1136C190.395 29.1136 189.963 28.9964 189.591 28.7621C189.222 28.5277 188.933 28.1998 188.725 27.7784C188.519 27.357 188.416 26.8646 188.416 26.3011C188.416 25.733 188.519 25.237 188.725 24.8132C188.933 24.3894 189.222 24.0604 189.591 23.826C189.963 23.5916 190.395 23.4744 190.887 23.4744C191.38 23.4744 191.811 23.5916 192.18 23.826C192.552 24.0604 192.84 24.3894 193.046 24.8132C193.255 25.237 193.359 25.733 193.359 26.3011C193.359 26.8646 193.255 27.357 193.046 27.7784C192.84 28.1998 192.552 28.5277 192.18 28.7621C191.811 28.9964 191.38 29.1136 190.887 29.1136ZM190.887 28.3608C191.261 28.3608 191.569 28.2649 191.811 28.0732C192.052 27.8814 192.231 27.6293 192.347 27.3168C192.463 27.0043 192.521 26.6657 192.521 26.3011C192.521 25.9366 192.463 25.5968 192.347 25.282C192.231 24.9671 192.052 24.7126 191.811 24.5185C191.569 24.3243 191.261 24.2273 190.887 24.2273C190.513 24.2273 190.205 24.3243 189.964 24.5185C189.722 24.7126 189.544 24.9671 189.428 25.282C189.312 25.5968 189.254 25.9366 189.254 26.3011C189.254 26.6657 189.312 27.0043 189.428 27.3168C189.544 27.6293 189.722 27.8814 189.964 28.0732C190.205 28.2649 190.513 28.3608 190.887 28.3608ZM194.638 29V23.5455H196.868C197.455 23.5455 197.922 23.678 198.267 23.9432C198.613 24.2083 198.786 24.5587 198.786 24.9943C198.786 25.3258 198.688 25.5826 198.491 25.7649C198.295 25.9448 198.042 26.0668 197.735 26.1307C197.936 26.1591 198.131 26.2301 198.321 26.3438C198.512 26.4574 198.671 26.6136 198.797 26.8125C198.922 27.009 198.985 27.2505 198.985 27.5369C198.985 27.8163 198.914 28.0661 198.772 28.2862C198.63 28.5064 198.426 28.6804 198.161 28.8082C197.896 28.9361 197.578 29 197.209 29H194.638ZM195.434 28.233H197.209C197.498 28.233 197.724 28.1643 197.887 28.027C198.051 27.8897 198.132 27.7027 198.132 27.4659C198.132 27.1842 198.051 26.9628 197.887 26.8018C197.724 26.6385 197.498 26.5568 197.209 26.5568H195.434V28.233ZM195.434 25.8324H196.868C197.093 25.8324 197.286 25.8016 197.447 25.7401C197.608 25.6761 197.731 25.5862 197.816 25.4702C197.904 25.3518 197.948 25.2121 197.948 25.0511C197.948 24.8215 197.852 24.6416 197.66 24.5114C197.468 24.3788 197.204 24.3125 196.868 24.3125H195.434V25.8324ZM201.858 29.1278C201.513 29.1278 201.199 29.0627 200.917 28.9325C200.636 28.8 200.412 28.6094 200.246 28.3608C200.081 28.1098 199.998 27.8068 199.998 27.4517C199.998 27.1392 200.059 26.8859 200.182 26.6918C200.305 26.4953 200.47 26.3414 200.676 26.2301C200.882 26.1188 201.109 26.036 201.358 25.9815C201.609 25.9247 201.861 25.8797 202.114 25.8466C202.446 25.804 202.714 25.772 202.92 25.7507C203.129 25.727 203.28 25.688 203.375 25.6335C203.472 25.5791 203.52 25.4844 203.52 25.3494V25.321C203.52 24.9706 203.425 24.6984 203.233 24.5043C203.043 24.3101 202.756 24.2131 202.37 24.2131C201.97 24.2131 201.656 24.3007 201.429 24.4759C201.202 24.651 201.042 24.8381 200.949 25.0369L200.154 24.7528C200.296 24.4214 200.485 24.1634 200.722 23.9787C200.961 23.7917 201.222 23.6615 201.503 23.5881C201.787 23.5123 202.067 23.4744 202.341 23.4744C202.517 23.4744 202.718 23.4957 202.945 23.5384C203.175 23.5786 203.396 23.6626 203.609 23.7905C203.825 23.9183 204.003 24.1113 204.145 24.3693C204.287 24.6274 204.358 24.973 204.358 25.4062V29H203.52V28.2614H203.478C203.421 28.3797 203.326 28.5064 203.194 28.6413C203.061 28.7763 202.885 28.8911 202.665 28.9858C202.444 29.0805 202.176 29.1278 201.858 29.1278ZM201.986 28.375C202.318 28.375 202.597 28.3099 202.824 28.1797C203.054 28.0495 203.227 27.8814 203.343 27.6754C203.461 27.4695 203.52 27.2528 203.52 27.0256V26.2585C203.485 26.3011 203.407 26.3402 203.286 26.3757C203.168 26.4089 203.03 26.4384 202.874 26.4645C202.72 26.4882 202.57 26.5095 202.423 26.5284C202.279 26.545 202.162 26.5592 202.072 26.571C201.854 26.5994 201.65 26.6456 201.461 26.7095C201.274 26.7711 201.122 26.8646 201.006 26.9901C200.893 27.1132 200.836 27.2812 200.836 27.4943C200.836 27.7855 200.943 28.0057 201.159 28.1548C201.377 28.3016 201.653 28.375 201.986 28.375ZM210.178 23.5455V28.2188H210.945V30.7614H210.107V29H205.888V23.5455H206.726V28.2188H209.34V23.5455H210.178ZM213.074 27.7642L215.702 23.5455H216.668V29H215.83V24.7812L213.216 29H212.236V23.5455H213.074V27.7642ZM220.419 29.1136C219.926 29.1136 219.494 28.9964 219.122 28.7621C218.753 28.5277 218.464 28.1998 218.256 27.7784C218.05 27.357 217.947 26.8646 217.947 26.3011C217.947 25.733 218.05 25.237 218.256 24.8132C218.464 24.3894 218.753 24.0604 219.122 23.826C219.494 23.5916 219.926 23.4744 220.419 23.4744C220.911 23.4744 221.342 23.5916 221.711 23.826C222.083 24.0604 222.372 24.3894 222.578 24.8132C222.786 25.237 222.89 25.733 222.89 26.3011C222.89 26.8646 222.786 27.357 222.578 27.7784C222.372 28.1998 222.083 28.5277 221.711 28.7621C221.342 28.9964 220.911 29.1136 220.419 29.1136ZM220.419 28.3608C220.793 28.3608 221.1 28.2649 221.342 28.0732C221.583 27.8814 221.762 27.6293 221.878 27.3168C221.994 27.0043 222.052 26.6657 222.052 26.3011C222.052 25.9366 221.994 25.5968 221.878 25.282C221.762 24.9671 221.583 24.7126 221.342 24.5185C221.1 24.3243 220.793 24.2273 220.419 24.2273C220.044 24.2273 219.737 24.3243 219.495 24.5185C219.254 24.7126 219.075 24.9671 218.959 25.282C218.843 25.5968 218.785 25.9366 218.785 26.3011C218.785 26.6657 218.843 27.0043 218.959 27.3168C219.075 27.6293 219.254 27.8814 219.495 28.0732C219.737 28.2649 220.044 28.3608 220.419 28.3608ZM227.82 25.8892V26.6705H224.809V25.8892H227.82ZM225.007 23.5455V29H224.169V23.5455H225.007ZM228.459 23.5455V29H227.621V23.5455H228.459ZM233.64 25.8892V26.6705H230.629V25.8892H233.64ZM230.828 23.5455V29H229.99V23.5455H230.828ZM234.279 23.5455V29H233.441V23.5455H234.279ZM236.534 25.5199H238.097C238.736 25.5199 239.225 25.6821 239.564 26.0064C239.902 26.3307 240.071 26.7415 240.071 27.2386C240.071 27.5653 239.996 27.8625 239.844 28.13C239.693 28.3951 239.47 28.607 239.176 28.7656C238.883 28.9219 238.523 29 238.097 29H235.81V23.5455H236.648V28.2188H238.097C238.428 28.2188 238.701 28.1312 238.914 27.956C239.127 27.7808 239.233 27.5559 239.233 27.2812C239.233 26.9924 239.127 26.7569 238.914 26.5746C238.701 26.3923 238.428 26.3011 238.097 26.3011H236.534V25.5199ZM240.938 29V23.5455H241.776V29H240.938ZM243.935 23.5455L245.242 25.7756L246.549 23.5455H247.515L245.753 26.2727L247.515 29H246.549L245.242 26.8835L243.935 29H242.969L244.702 26.2727L242.969 23.5455H243.935ZM46.767 41V35.5455H51.0568V41H50.2188V36.3267H47.6051V41H46.767ZM52.5874 43.0455V35.5455H53.397V36.4119H53.4964C53.558 36.3172 53.6432 36.1965 53.7521 36.0497C53.8634 35.9006 54.022 35.768 54.228 35.652C54.4363 35.5336 54.718 35.4744 55.0732 35.4744C55.5324 35.4744 55.9373 35.5893 56.2876 35.8189C56.638 36.0485 56.9115 36.3741 57.108 36.7955C57.3045 37.2169 57.4027 37.714 57.4027 38.2869C57.4027 38.8646 57.3045 39.3653 57.108 39.7891C56.9115 40.2105 56.6392 40.5372 56.2912 40.7692C55.9432 40.9988 55.5419 41.1136 55.0874 41.1136C54.737 41.1136 54.4564 41.0556 54.2457 40.9396C54.035 40.8213 53.8729 40.6875 53.7592 40.5384C53.6456 40.3868 53.558 40.2614 53.4964 40.1619H53.4254V43.0455H52.5874ZM53.4112 38.2727C53.4112 38.6847 53.4716 39.0481 53.5923 39.3629C53.7131 39.6754 53.8894 39.9205 54.1214 40.098C54.3535 40.2732 54.6375 40.3608 54.9737 40.3608C55.3241 40.3608 55.6165 40.2685 55.8509 40.0838C56.0876 39.8968 56.2652 39.6458 56.3835 39.331C56.5043 39.0137 56.5646 38.661 56.5646 38.2727C56.5646 37.8892 56.5054 37.5436 56.3871 37.2358C56.2711 36.9257 56.0947 36.6806 55.858 36.5007C55.6236 36.3184 55.3288 36.2273 54.9737 36.2273C54.6328 36.2273 54.3464 36.3137 54.1143 36.4865C53.8823 36.657 53.7071 36.8961 53.5888 37.2038C53.4704 37.5092 53.4112 37.8655 53.4112 38.2727ZM60.897 41.1136C60.4046 41.1136 59.9725 40.9964 59.6009 40.7621C59.2315 40.5277 58.9427 40.1998 58.7344 39.7784C58.5284 39.357 58.4254 38.8646 58.4254 38.3011C58.4254 37.733 58.5284 37.237 58.7344 36.8132C58.9427 36.3894 59.2315 36.0604 59.6009 35.826C59.9725 35.5916 60.4046 35.4744 60.897 35.4744C61.3894 35.4744 61.8203 35.5916 62.1896 35.826C62.5613 36.0604 62.8501 36.3894 63.0561 36.8132C63.2644 37.237 63.3686 37.733 63.3686 38.3011C63.3686 38.8646 63.2644 39.357 63.0561 39.7784C62.8501 40.1998 62.5613 40.5277 62.1896 40.7621C61.8203 40.9964 61.3894 41.1136 60.897 41.1136ZM60.897 40.3608C61.2711 40.3608 61.5788 40.2649 61.8203 40.0732C62.0618 39.8814 62.2405 39.6293 62.3565 39.3168C62.4725 39.0043 62.5305 38.6657 62.5305 38.3011C62.5305 37.9366 62.4725 37.5968 62.3565 37.282C62.2405 36.9671 62.0618 36.7126 61.8203 36.5185C61.5788 36.3243 61.2711 36.2273 60.897 36.2273C60.523 36.2273 60.2152 36.3243 59.9737 36.5185C59.7322 36.7126 59.5535 36.9671 59.4375 37.282C59.3215 37.5968 59.2635 37.9366 59.2635 38.3011C59.2635 38.6657 59.3215 39.0043 59.4375 39.3168C59.5535 39.6293 59.7322 39.8814 59.9737 40.0732C60.2152 40.2649 60.523 40.3608 60.897 40.3608ZM66.9348 41.1136C66.4093 41.1136 65.9559 40.9976 65.5748 40.7656C65.196 40.5312 64.9036 40.2045 64.6976 39.7855C64.494 39.3641 64.3922 38.8741 64.3922 38.3153C64.3922 37.7566 64.494 37.2642 64.6976 36.8381C64.9036 36.4096 65.19 36.0758 65.557 35.8366C65.9263 35.5952 66.3572 35.4744 66.8496 35.4744C67.1337 35.4744 67.4142 35.5218 67.6912 35.6165C67.9682 35.7112 68.2203 35.8651 68.4476 36.0781C68.6749 36.2888 68.856 36.5682 68.9909 36.9162C69.1259 37.2642 69.1934 37.6927 69.1934 38.2017V38.5568H64.9888V37.8324H68.3411C68.3411 37.5246 68.2795 37.25 68.1564 37.0085C68.0357 36.767 67.8629 36.5765 67.638 36.4368C67.4154 36.2971 67.1526 36.2273 66.8496 36.2273C66.5158 36.2273 66.227 36.3101 65.9831 36.4759C65.7417 36.6392 65.5558 36.8523 65.4256 37.1151C65.2954 37.3778 65.2303 37.6596 65.2303 37.9602V38.4432C65.2303 38.8551 65.3013 39.2043 65.4434 39.4908C65.5878 39.7749 65.7878 39.9915 66.0435 40.1406C66.2992 40.2874 66.5963 40.3608 66.9348 40.3608C67.155 40.3608 67.3539 40.33 67.5314 40.2685C67.7114 40.2045 67.8664 40.1098 67.9966 39.9844C68.1268 39.8565 68.2275 39.6979 68.2985 39.5085L69.1081 39.7358C69.0229 40.0104 68.8797 40.2519 68.6784 40.4602C68.4772 40.6662 68.2286 40.8272 67.9327 40.9432C67.6368 41.0568 67.3042 41.1136 66.9348 41.1136ZM70.4682 41V35.5455H71.3063V37.9176H71.8603L73.8205 35.5455H74.9L72.6983 38.1733L74.9284 41H73.8489L72.0591 38.6989H71.3063V41H70.4682ZM75.5268 36.3267V35.5455H79.9586V36.3267H78.1689V41H77.3308V36.3267H75.5268ZM83.1138 41.1136C82.6214 41.1136 82.1893 40.9964 81.8176 40.7621C81.4483 40.5277 81.1595 40.1998 80.9512 39.7784C80.7452 39.357 80.6422 38.8646 80.6422 38.3011C80.6422 37.733 80.7452 37.237 80.9512 36.8132C81.1595 36.3894 81.4483 36.0604 81.8176 35.826C82.1893 35.5916 82.6214 35.4744 83.1138 35.4744C83.6062 35.4744 84.0371 35.5916 84.4064 35.826C84.7781 36.0604 85.0669 36.3894 85.2729 36.8132C85.4812 37.237 85.5854 37.733 85.5854 38.3011C85.5854 38.8646 85.4812 39.357 85.2729 39.7784C85.0669 40.1998 84.7781 40.5277 84.4064 40.7621C84.0371 40.9964 83.6062 41.1136 83.1138 41.1136ZM83.1138 40.3608C83.4879 40.3608 83.7956 40.2649 84.0371 40.0732C84.2786 39.8814 84.4573 39.6293 84.5733 39.3168C84.6893 39.0043 84.7473 38.6657 84.7473 38.3011C84.7473 37.9366 84.6893 37.5968 84.5733 37.282C84.4573 36.9671 84.2786 36.7126 84.0371 36.5185C83.7956 36.3243 83.4879 36.2273 83.1138 36.2273C82.7398 36.2273 82.432 36.3243 82.1905 36.5185C81.949 36.7126 81.7703 36.9671 81.6543 37.282C81.5383 37.5968 81.4803 37.9366 81.4803 38.3011C81.4803 38.6657 81.5383 39.0043 81.6543 39.3168C81.7703 39.6293 81.949 39.8814 82.1905 40.0732C82.432 40.2649 82.7398 40.3608 83.1138 40.3608ZM86.8647 41V35.5455H89.0948C89.6819 35.5455 90.1483 35.678 90.494 35.9432C90.8396 36.2083 91.0124 36.5587 91.0124 36.9943C91.0124 37.3258 90.9142 37.5826 90.7177 37.7649C90.5212 37.9448 90.2691 38.0668 89.9613 38.1307C90.1625 38.1591 90.3578 38.2301 90.5472 38.3438C90.739 38.4574 90.8976 38.6136 91.0231 38.8125C91.1486 39.009 91.2113 39.2505 91.2113 39.5369C91.2113 39.8163 91.1403 40.0661 90.9982 40.2862C90.8562 40.5064 90.6526 40.6804 90.3874 40.8082C90.1223 40.9361 89.805 41 89.4357 41H86.8647ZM87.6602 40.233H89.4357C89.7246 40.233 89.9506 40.1643 90.114 40.027C90.2773 39.8897 90.359 39.7027 90.359 39.4659C90.359 39.1842 90.2773 38.9628 90.114 38.8018C89.9506 38.6385 89.7246 38.5568 89.4357 38.5568H87.6602V40.233ZM87.6602 37.8324H89.0948C89.3197 37.8324 89.5127 37.8016 89.6737 37.7401C89.8346 37.6761 89.9577 37.5862 90.043 37.4702C90.1306 37.3518 90.1744 37.2121 90.1744 37.0511C90.1744 36.8215 90.0785 36.6416 89.8867 36.5114C89.695 36.3788 89.431 36.3125 89.0948 36.3125H87.6602V37.8324ZM96.1305 39.7642L98.7583 35.5455H99.7243V41H98.8862V36.7812L96.2725 41H95.2924V35.5455H96.1305V39.7642ZM104.072 43.0455V35.5455H104.881V36.4119H104.981C105.042 36.3172 105.128 36.1965 105.237 36.0497C105.348 35.9006 105.506 35.768 105.712 35.652C105.921 35.5336 106.202 35.4744 106.558 35.4744C107.017 35.4744 107.422 35.5893 107.772 35.8189C108.122 36.0485 108.396 36.3741 108.592 36.7955C108.789 37.2169 108.887 37.714 108.887 38.2869C108.887 38.8646 108.789 39.3653 108.592 39.7891C108.396 40.2105 108.124 40.5372 107.776 40.7692C107.428 40.9988 107.026 41.1136 106.572 41.1136C106.221 41.1136 105.941 41.0556 105.73 40.9396C105.519 40.8213 105.357 40.6875 105.244 40.5384C105.13 40.3868 105.042 40.2614 104.981 40.1619H104.91V43.0455H104.072ZM104.896 38.2727C104.896 38.6847 104.956 39.0481 105.077 39.3629C105.197 39.6754 105.374 39.9205 105.606 40.098C105.838 40.2732 106.122 40.3608 106.458 40.3608C106.808 40.3608 107.101 40.2685 107.335 40.0838C107.572 39.8968 107.75 39.6458 107.868 39.331C107.989 39.0137 108.049 38.661 108.049 38.2727C108.049 37.8892 107.99 37.5436 107.871 37.2358C107.755 36.9257 107.579 36.6806 107.342 36.5007C107.108 36.3184 106.813 36.2273 106.458 36.2273C106.117 36.2273 105.831 36.3137 105.599 36.4865C105.367 36.657 105.192 36.8961 105.073 37.2038C104.955 37.5092 104.896 37.8655 104.896 38.2727ZM111.771 41.1278C111.425 41.1278 111.111 41.0627 110.83 40.9325C110.548 40.8 110.324 40.6094 110.158 40.3608C109.993 40.1098 109.91 39.8068 109.91 39.4517C109.91 39.1392 109.971 38.8859 110.094 38.6918C110.218 38.4953 110.382 38.3414 110.588 38.2301C110.794 38.1188 111.021 38.036 111.27 37.9815C111.521 37.9247 111.773 37.8797 112.026 37.8466C112.358 37.804 112.626 37.772 112.832 37.7507C113.041 37.727 113.192 37.688 113.287 37.6335C113.384 37.5791 113.433 37.4844 113.433 37.3494V37.321C113.433 36.9706 113.337 36.6984 113.145 36.5043C112.955 36.3101 112.668 36.2131 112.282 36.2131C111.882 36.2131 111.568 36.3007 111.341 36.4759C111.114 36.651 110.954 36.8381 110.862 37.0369L110.066 36.7528C110.208 36.4214 110.397 36.1634 110.634 35.9787C110.873 35.7917 111.134 35.6615 111.415 35.5881C111.7 35.5123 111.979 35.4744 112.254 35.4744C112.429 35.4744 112.63 35.4957 112.857 35.5384C113.087 35.5786 113.308 35.6626 113.521 35.7905C113.737 35.9183 113.915 36.1113 114.058 36.3693C114.2 36.6274 114.271 36.973 114.271 37.4062V41H113.433V40.2614H113.39C113.333 40.3797 113.238 40.5064 113.106 40.6413C112.973 40.7763 112.797 40.8911 112.577 40.9858C112.357 41.0805 112.088 41.1278 111.771 41.1278ZM111.898 40.375C112.23 40.375 112.509 40.3099 112.737 40.1797C112.966 40.0495 113.139 39.8814 113.255 39.6754C113.373 39.4695 113.433 39.2528 113.433 39.0256V38.2585C113.397 38.3011 113.319 38.3402 113.198 38.3757C113.08 38.4089 112.942 38.4384 112.786 38.4645C112.632 38.4882 112.482 38.5095 112.335 38.5284C112.191 38.545 112.074 38.5592 111.984 38.571C111.766 38.5994 111.562 38.6456 111.373 38.7095C111.186 38.7711 111.034 38.8646 110.918 38.9901C110.805 39.1132 110.748 39.2812 110.748 39.4943C110.748 39.7855 110.856 40.0057 111.071 40.1548C111.289 40.3016 111.565 40.375 111.898 40.375ZM115.459 39.608H116.354C116.373 39.8542 116.484 40.0412 116.688 40.169C116.894 40.2969 117.162 40.3608 117.491 40.3608C117.827 40.3608 118.114 40.2921 118.354 40.1548C118.593 40.0152 118.712 39.7902 118.712 39.4801C118.712 39.2978 118.667 39.1392 118.577 39.0043C118.487 38.867 118.361 38.7604 118.197 38.6847C118.034 38.6089 117.841 38.571 117.618 38.571H116.681V37.8182H117.618C117.952 37.8182 118.198 37.7424 118.357 37.5909C118.518 37.4394 118.599 37.25 118.599 37.0227C118.599 36.7789 118.512 36.5836 118.339 36.4368C118.166 36.2876 117.921 36.2131 117.604 36.2131C117.285 36.2131 117.018 36.2853 116.805 36.4297C116.592 36.5717 116.48 36.7552 116.468 36.9801H115.587C115.597 36.6866 115.687 36.4273 115.857 36.2024C116.028 35.9751 116.26 35.7976 116.553 35.6697C116.847 35.5395 117.183 35.4744 117.562 35.4744C117.945 35.4744 118.278 35.5419 118.559 35.6768C118.844 35.8094 119.063 35.9905 119.216 36.2202C119.373 36.4474 119.451 36.7055 119.451 36.9943C119.451 37.3021 119.364 37.5507 119.192 37.7401C119.019 37.9295 118.802 38.0644 118.542 38.1449V38.2017C118.748 38.2159 118.926 38.2822 119.078 38.4006C119.232 38.5166 119.351 38.6693 119.437 38.8587C119.522 39.0457 119.564 39.2528 119.564 39.4801C119.564 39.8116 119.476 40.1004 119.298 40.3466C119.121 40.5904 118.877 40.7798 118.567 40.9148C118.256 41.0473 117.903 41.1136 117.505 41.1136C117.119 41.1136 116.773 41.0509 116.468 40.9254C116.162 40.7976 115.92 40.6212 115.74 40.3963C115.562 40.169 115.469 39.9062 115.459 39.608ZM120.742 41V35.5455H122.972C123.559 35.5455 124.025 35.678 124.371 35.9432C124.717 36.2083 124.889 36.5587 124.889 36.9943C124.889 37.3258 124.791 37.5826 124.595 37.7649C124.398 37.9448 124.146 38.0668 123.838 38.1307C124.039 38.1591 124.235 38.2301 124.424 38.3438C124.616 38.4574 124.775 38.6136 124.9 38.8125C125.026 39.009 125.088 39.2505 125.088 39.5369C125.088 39.8163 125.017 40.0661 124.875 40.2862C124.733 40.5064 124.53 40.6804 124.264 40.8082C123.999 40.9361 123.682 41 123.313 41H120.742ZM121.537 40.233H123.313C123.602 40.233 123.828 40.1643 123.991 40.027C124.154 39.8897 124.236 39.7027 124.236 39.4659C124.236 39.1842 124.154 38.9628 123.991 38.8018C123.828 38.6385 123.602 38.5568 123.313 38.5568H121.537V40.233ZM121.537 37.8324H122.972C123.197 37.8324 123.39 37.8016 123.551 37.7401C123.712 37.6761 123.835 37.5862 123.92 37.4702C124.008 37.3518 124.051 37.2121 124.051 37.0511C124.051 36.8215 123.955 36.6416 123.764 36.5114C123.572 36.3788 123.308 36.3125 122.972 36.3125H121.537V37.8324ZM127.195 39.7642L129.823 35.5455H130.789V41H129.951V36.7812L127.337 41H126.357V35.5455H127.195V39.7642ZM131.581 36.3267V35.5455H136.013V36.3267H134.224V41H133.385V36.3267H131.581ZM138.074 39.7642L140.702 35.5455H141.668V41H140.83V36.7812L138.216 41H137.236V35.5455H138.074V39.7642ZM146.484 41V36.3125H145.035C144.708 36.3125 144.451 36.3883 144.264 36.5398C144.077 36.6913 143.984 36.8996 143.984 37.1648C143.984 37.4252 144.068 37.63 144.236 37.7791C144.406 37.9283 144.64 38.0028 144.936 38.0028H146.697V38.7841H144.936C144.566 38.7841 144.248 38.719 143.98 38.5888C143.713 38.4586 143.507 38.2727 143.362 38.0312C143.218 37.7874 143.146 37.4986 143.146 37.1648C143.146 36.8286 143.222 36.5398 143.373 36.2983C143.525 36.0568 143.741 35.871 144.023 35.7408C144.307 35.6106 144.644 35.5455 145.035 35.5455H147.279V41H146.484ZM142.847 41L144.396 38.2869H145.305L143.757 41H142.847ZM151.63 41V35.5455H152.468V37.9176H153.022L154.983 35.5455H156.062L153.86 38.1733L156.091 41H155.011L153.221 38.6989H152.468V41H151.63ZM158.993 41.1136C158.5 41.1136 158.068 40.9964 157.697 40.7621C157.327 40.5277 157.038 40.1998 156.83 39.7784C156.624 39.357 156.521 38.8646 156.521 38.3011C156.521 37.733 156.624 37.237 156.83 36.8132C157.038 36.3894 157.327 36.0604 157.697 35.826C158.068 35.5916 158.5 35.4744 158.993 35.4744C159.485 35.4744 159.916 35.5916 160.285 35.826C160.657 36.0604 160.946 36.3894 161.152 36.8132C161.36 37.237 161.464 37.733 161.464 38.3011C161.464 38.8646 161.36 39.357 161.152 39.7784C160.946 40.1998 160.657 40.5277 160.285 40.7621C159.916 40.9964 159.485 41.1136 158.993 41.1136ZM158.993 40.3608C159.367 40.3608 159.675 40.2649 159.916 40.0732C160.157 39.8814 160.336 39.6293 160.452 39.3168C160.568 39.0043 160.626 38.6657 160.626 38.3011C160.626 37.9366 160.568 37.5968 160.452 37.282C160.336 36.9671 160.157 36.7126 159.916 36.5185C159.675 36.3243 159.367 36.2273 158.993 36.2273C158.619 36.2273 158.311 36.3243 158.069 36.5185C157.828 36.7126 157.649 36.9671 157.533 37.282C157.417 37.5968 157.359 37.9366 157.359 38.3011C157.359 38.6657 157.417 39.0043 157.533 39.3168C157.649 39.6293 157.828 39.8814 158.069 40.0732C158.311 40.2649 158.619 40.3608 158.993 40.3608ZM165.727 39.8636L167.63 35.5455H168.425L166.067 41H165.386L163.07 35.5455H163.852L165.727 39.8636ZM163.582 35.5455V41H162.744V35.5455H163.582ZM167.871 41V35.5455H168.71V41H167.871ZM170.244 41V35.5455H174.533V41H173.695V36.3267H171.082V41H170.244ZM178.351 41.1136C177.825 41.1136 177.372 40.9976 176.991 40.7656C176.612 40.5312 176.32 40.2045 176.114 39.7855C175.91 39.3641 175.808 38.8741 175.808 38.3153C175.808 37.7566 175.91 37.2642 176.114 36.8381C176.32 36.4096 176.606 36.0758 176.973 35.8366C177.342 35.5952 177.773 35.4744 178.266 35.4744C178.55 35.4744 178.83 35.5218 179.107 35.6165C179.384 35.7112 179.636 35.8651 179.864 36.0781C180.091 36.2888 180.272 36.5682 180.407 36.9162C180.542 37.2642 180.609 37.6927 180.609 38.2017V38.5568H176.405V37.8324H179.757C179.757 37.5246 179.696 37.25 179.572 37.0085C179.452 36.767 179.279 36.5765 179.054 36.4368C178.831 36.2971 178.569 36.2273 178.266 36.2273C177.932 36.2273 177.643 36.3101 177.399 36.4759C177.158 36.6392 176.972 36.8523 176.842 37.1151C176.711 37.3778 176.646 37.6596 176.646 37.9602V38.4432C176.646 38.8551 176.717 39.2043 176.859 39.4908C177.004 39.7749 177.204 39.9915 177.46 40.1406C177.715 40.2874 178.012 40.3608 178.351 40.3608C178.571 40.3608 178.77 40.33 178.947 40.2685C179.127 40.2045 179.282 40.1098 179.413 39.9844C179.543 39.8565 179.643 39.6979 179.714 39.5085L180.524 39.7358C180.439 40.0104 180.296 40.2519 180.094 40.4602C179.893 40.6662 179.645 40.8272 179.349 40.9432C179.053 41.0568 178.72 41.1136 178.351 41.1136ZM181.376 36.3267V35.5455H185.808V36.3267H184.018V41H183.18V36.3267H181.376ZM189.034 41.1136C188.509 41.1136 188.056 40.9976 187.674 40.7656C187.296 40.5312 187.003 40.2045 186.797 39.7855C186.594 39.3641 186.492 38.8741 186.492 38.3153C186.492 37.7566 186.594 37.2642 186.797 36.8381C187.003 36.4096 187.29 36.0758 187.657 35.8366C188.026 35.5952 188.457 35.4744 188.949 35.4744C189.233 35.4744 189.514 35.5218 189.791 35.6165C190.068 35.7112 190.32 35.8651 190.547 36.0781C190.775 36.2888 190.956 36.5682 191.091 36.9162C191.225 37.2642 191.293 37.6927 191.293 38.2017V38.5568H187.088V37.8324H190.441C190.441 37.5246 190.379 37.25 190.256 37.0085C190.135 36.767 189.962 36.5765 189.738 36.4368C189.515 36.2971 189.252 36.2273 188.949 36.2273C188.615 36.2273 188.327 36.3101 188.083 36.4759C187.841 36.6392 187.655 36.8523 187.525 37.1151C187.395 37.3778 187.33 37.6596 187.33 37.9602V38.4432C187.33 38.8551 187.401 39.2043 187.543 39.4908C187.687 39.7749 187.887 39.9915 188.143 40.1406C188.399 40.2874 188.696 40.3608 189.034 40.3608C189.255 40.3608 189.453 40.33 189.631 40.2685C189.811 40.2045 189.966 40.1098 190.096 39.9844C190.226 39.8565 190.327 39.6979 190.398 39.5085L191.208 39.7358C191.123 40.0104 190.979 40.2519 190.778 40.4602C190.577 40.6662 190.328 40.8272 190.032 40.9432C189.736 41.0568 189.404 41.1136 189.034 41.1136ZM196.218 37.8892V38.6705H193.207V37.8892H196.218ZM193.406 35.5455V41H192.568V35.5455H193.406ZM196.858 35.5455V41H196.02V35.5455H196.858ZM202.678 35.5455V40.2188H203.445V42.7614H202.607V41H198.388V35.5455H199.226V40.2188H201.84V35.5455H202.678ZM205.574 39.7642L208.202 35.5455H209.168V41H208.33V36.7812L205.716 41H204.736V35.5455H205.574V39.7642ZM211.541 39.7642L214.169 35.5455H215.134V41H214.296V36.7812L211.683 41H210.703V35.5455H211.541V39.7642ZM213.615 33.7273H214.396C214.396 34.1108 214.263 34.4245 213.998 34.6683C213.733 34.9122 213.373 35.0341 212.919 35.0341C212.471 35.0341 212.115 34.9122 211.85 34.6683C211.587 34.4245 211.455 34.1108 211.455 33.7273H212.237C212.237 33.9119 212.288 34.0741 212.389 34.2138C212.494 34.3535 212.67 34.4233 212.919 34.4233C213.167 34.4233 213.345 34.3535 213.451 34.2138C213.56 34.0741 213.615 33.9119 213.615 33.7273Z" fill="black"/>
<path d="M27.0605 23.5998C27.0605 23.4998 27.1605 23.3998 27.2605 23.3998C27.3605 23.3998 27.3605 23.3998 27.4605 23.3998C28.6605 23.1998 29.8605 21.9998 29.9605 20.6998C29.9605 19.9998 29.7605 19.2998 29.3605 18.8998C29.2605 18.7998 29.2605 18.5998 29.4605 18.5998C29.5605 18.5998 29.5605 18.4998 29.5605 18.4998C33.4605 15.8998 36.4605 10.7998 36.7605 10.2998C36.7605 10.2998 36.7605 10.2998 36.8605 10.2998C37.9605 11.1998 38.1605 12.8998 37.1605 14.3998C36.4605 15.3998 34.8605 16.5998 33.0605 17.5998C33.0605 17.7998 33.0605 17.9998 33.0605 18.1998C36.6605 17.3998 38.6605 14.7998 38.9605 14.3998H39.0605C39.8605 15.6998 39.4605 17.4998 38.1605 18.2998C37.0605 18.9998 35.1605 19.3998 32.9605 19.6998C32.9605 19.8998 32.8605 20.0998 32.8605 20.2998C36.3605 20.7998 38.9605 19.3998 39.4605 19.1998H39.5605C39.8605 20.7998 39.0605 22.1998 37.4605 22.4998C35.8605 22.7998 32.4605 21.8998 32.4605 21.8998C32.3605 22.0998 32.3605 22.2998 32.2605 22.3998C34.5605 23.9998 37.7605 23.7998 38.2605 23.6998C38.2605 23.6998 38.3605 23.6998 38.3605 23.7998C38.4605 25.7998 36.8605 26.2998 35.4605 26.0998C34.2605 25.8998 32.5605 24.8998 31.4605 23.7998C31.3605 23.9998 31.1605 24.0998 31.0605 24.1998C32.1605 26.4998 34.8605 27.4998 35.7605 27.5998C35.7605 27.5998 35.8605 27.6998 35.7605 27.6998C35.1605 28.9998 33.8605 29.4998 32.3605 28.4998C31.4605 27.9998 30.4605 26.5998 29.8605 25.0998C29.6605 25.1998 29.5605 25.2998 29.3605 25.3998C29.6605 28.1998 31.8605 30.0998 32.2605 30.3998C32.2605 30.3998 32.2605 30.3998 32.2605 30.4998C32.2605 30.4998 32.2605 30.4998 32.2605 30.5998C31.5605 31.6998 29.8605 31.6998 28.9605 30.1998C28.4605 29.2998 28.0605 27.5998 27.9605 25.7998C27.7605 25.7998 27.5605 25.7998 27.3605 25.8998C27.2605 25.8998 27.1605 25.7998 27.1605 25.6998V23.5998H27.0605Z" fill="#3A579B"/>
<path d="M12.5621 23.5998C12.5621 23.4998 12.4621 23.3998 12.3621 23.3998C12.2621 23.3998 12.2621 23.3998 12.1621 23.3998C10.9621 23.0998 9.76214 21.9998 9.66214 20.6998C9.66214 19.9998 9.86214 19.2998 10.2621 18.8998C10.3621 18.7998 10.3621 18.5998 10.1621 18.5998C10.0621 18.5998 10.0621 18.4998 10.0621 18.4998C6.16214 15.8998 3.16214 10.7998 2.86214 10.2998C2.86214 10.2998 2.86214 10.2998 2.76214 10.2998C1.66214 11.0998 1.46214 12.8998 2.46214 14.3998C3.16214 15.3998 4.76215 16.5998 6.56214 17.5998C6.56214 17.7998 6.56214 17.9998 6.56214 18.1998C2.96214 17.3998 0.962144 14.7998 0.662146 14.3998H0.562146C-0.237854 15.6998 0.162146 17.4998 1.46214 18.2998C2.56214 18.9998 4.46214 19.3998 6.66214 19.6998C6.66214 19.8998 6.76214 20.0998 6.76214 20.2998C3.26214 20.7998 0.662146 19.3998 0.162146 19.1998H0.0621464C-0.237854 20.7998 0.562146 22.1998 2.16214 22.4998C3.76214 22.7998 7.16214 21.8998 7.16214 21.8998C7.26214 22.0998 7.26214 22.2998 7.36214 22.3998C5.06214 23.9998 1.86214 23.7998 1.36214 23.6998C1.36214 23.6998 1.26214 23.6998 1.26214 23.7998C1.16214 25.7998 2.76214 26.2998 4.16214 26.0998C5.36214 25.8998 7.06214 24.8998 8.16214 23.7998C8.26214 23.9998 8.46214 24.0998 8.56214 24.1998C7.46214 26.4998 4.76214 27.4998 3.86214 27.5998C3.86214 27.5998 3.76214 27.6998 3.86214 27.6998C4.46214 28.9998 5.76214 29.4998 7.26214 28.4998C8.16214 27.9998 9.16214 26.5998 9.76214 25.0998C9.96211 25.1998 10.0621 25.2998 10.2621 25.3998C9.96211 28.1998 7.76214 30.0998 7.36214 30.3998C7.36214 30.3998 7.36214 30.3998 7.36214 30.4998C7.36214 30.4998 7.36214 30.4998 7.36214 30.5998C8.06214 31.6998 9.76214 31.6998 10.6621 30.1998C11.1621 29.2998 11.5621 27.5998 11.6621 25.7998C11.8621 25.7998 12.0621 25.7998 12.2621 25.8998C12.3621 25.8998 12.4621 25.7998 12.4621 25.6998V23.5998H12.5621Z" fill="#3A579B"/>
<path d="M12.3619 11.4H14.9619C17.1619 11.4 18.2619 10 18.5619 8.8H20.8619C21.1619 10 22.1619 11.4 24.4619 11.4H27.1619C27.1619 11.4 27.6619 10.8 27.7619 10.5C28.1619 9.4 27.6619 8.8 26.8619 8.8L25.8619 9.7L24.8619 8.8C24.0619 8.8 23.5619 9.3 23.9619 10.5C24.0619 10.6 24.1619 10.9 24.2619 11C23.3619 10.9 22.0619 10.2 21.8619 8.8C21.8619 8.8 22.5619 7.7 22.7619 7.2C23.2619 5.7 22.4619 5 21.2619 5L19.7619 6.8L18.1619 5C16.9619 5 16.1619 5.7 16.7619 7.3C16.9619 7.8 17.6619 8.9 17.6619 8.9C17.3619 10.3 16.1619 10.9 15.2619 11.1C15.3619 10.9 15.5619 10.7 15.5619 10.6C15.9619 9.5 15.4619 8.9 14.6619 8.9L13.6619 9.8L12.6619 8.9C11.8619 8.9 11.3619 9.4 11.7619 10.6C11.8619 10.8 12.3619 11.4 12.3619 11.4Z" fill="#3A579B"/>
<path d="M16.6612 18.9001H19.1612C19.2612 18.9001 19.3612 18.8001 19.3612 18.7001C18.8612 16.7001 17.8612 15.1001 16.7612 14.2001C17.5612 13.8001 18.4612 12.7001 18.4612 12.1001C15.7612 13.1001 10.5612 11.6001 10.0612 13.8001C9.96117 14.3001 10.1612 15.0001 10.4612 15.2001C10.4612 15.0001 10.7612 14.5001 11.4612 14.4001C13.8612 14.0001 16.0612 16.4001 16.4612 18.7001C16.5612 18.8001 16.5612 18.9001 16.6612 18.9001Z" fill="#3A579B"/>
<path d="M29.4621 13.8001C28.9621 11.5001 23.6621 13.0001 21.0621 12.1001C20.9621 12.8001 21.8621 13.8001 22.7621 14.2001C21.7621 15.1001 20.7621 16.7001 20.1621 18.7001C20.1621 18.8001 20.2621 18.9001 20.3621 18.9001H22.8621C22.9621 18.9001 23.0621 18.8001 23.0621 18.8001C23.4621 16.5001 25.6621 14.2001 28.0621 14.5001C28.7621 14.6001 29.0621 15.1001 29.0621 15.3001C29.2621 15.0001 29.4621 14.3001 29.4621 13.8001Z" fill="#3A579B"/>
<path d="M22.8609 21.9998C21.4609 21.5998 19.7609 21.5998 19.7609 21.5998C19.7609 21.5998 18.0609 21.5998 16.6609 21.9998C15.1609 22.4998 13.6609 21.6998 13.1609 21.3998C13.0609 21.2998 12.9609 21.3998 12.9609 21.4998C13.0609 22.1998 13.6609 23.7998 16.0609 24.3998C18.3609 24.8998 19.3609 27.4998 19.6609 28.5998C19.6609 28.6998 19.8609 28.6998 19.9609 28.5998C20.2609 27.4998 21.3609 24.9998 23.5609 24.3998C25.9609 23.7998 26.5609 22.1998 26.6609 21.4998C26.6609 21.3998 26.5609 21.2998 26.4609 21.3998C25.8609 21.7998 24.4609 22.4998 22.8609 21.9998Z" fill="#3A579B"/>
<path d="M22.0605 26.5996C22.1605 26.6996 22.3605 26.7996 22.5605 26.7996C23.0605 26.7996 23.4605 26.3996 23.4605 25.8996C23.4605 25.7996 23.4605 25.6996 23.3605 25.5996C22.8605 25.7996 22.3605 26.1996 22.0605 26.5996Z" fill="#3A579B"/>
<path d="M24.3609 25.1998C24.4609 25.3998 24.5609 25.5998 24.5609 25.8998C24.5609 26.9998 23.6609 27.8998 22.5609 27.8998C22.1609 27.8998 21.7609 27.7998 21.4609 27.4998C21.2609 27.8998 21.0609 28.2998 20.9609 28.5998C21.4609 28.8998 21.9609 29.0998 22.5609 29.0998C24.2609 29.0998 25.6609 27.6998 25.6609 25.9998C25.6609 25.5998 25.5609 25.1998 25.3609 24.7998C25.1609 24.9998 24.7609 25.0998 24.3609 25.1998Z" fill="#3A579B"/>
<path d="M18.0617 27.5997C17.7617 27.7997 17.3617 27.8997 16.9617 27.8997C15.8617 27.8997 14.9617 26.9997 14.9617 25.8997C14.9617 25.6997 15.0617 25.3997 15.1617 25.1997C14.7617 25.0997 14.3617 24.8997 14.0617 24.6997C13.8617 25.0997 13.7617 25.4997 13.7617 25.8997C13.7617 27.5997 15.1617 28.9997 16.8617 28.9997C17.4617 28.9997 17.9617 28.7997 18.4617 28.4997C18.4617 28.2997 18.2617 27.9997 18.0617 27.5997Z" fill="#3A579B"/>
<path d="M16.1605 25.5996C16.1605 25.6996 16.0605 25.7996 16.0605 25.8996C16.0605 26.3996 16.4605 26.7996 16.9605 26.7996C17.1605 26.7996 17.3605 26.6996 17.4605 26.5996C17.1605 26.1996 16.7605 25.7996 16.1605 25.5996Z" fill="#3A579B"/>
<path fill-rule="evenodd" clip-rule="evenodd" d="M34.8633 7.9002C34.9633 7.9002 34.9633 7.9002 34.8633 7.9002C33.7633 7.3002 34.0633 6.6002 33.4633 6.0002C32.7633 5.4002 31.7633 5.4002 31.5633 5.3002C30.3633 5.2002 30.0633 5.4002 29.9633 5.5002C29.7633 5.7002 29.3633 6.1002 29.1633 6.9002C28.9633 7.7002 29.0633 8.0002 29.2633 8.1002H29.3633C29.4633 8.2002 29.9633 8.0002 29.9633 8.0002C30.2633 8.1002 30.7633 8.3002 30.6633 9.4002C30.5633 10.8002 28.5633 11.1002 27.9633 11.2002L27.8633 11.4002C28.7633 11.4002 31.3633 11.1002 31.6633 9.8002C32.0633 8.5002 31.4633 8.0002 31.4633 8.0002C31.2633 7.8002 30.5633 7.8002 30.1633 7.9002C30.1633 7.9002 29.8633 7.6002 30.1633 6.9002C30.5633 5.7002 30.7633 5.7002 31.6633 5.8002C31.7633 5.8002 31.8633 5.8002 31.9633 5.9002C32.5633 6.3002 32.4633 7.1002 32.6633 7.7002C33.0633 9.5002 34.0633 9.5002 34.7633 9.7002C34.8633 9.7002 34.8633 9.6002 34.8633 9.6002C34.3633 9.2002 33.7633 8.6002 33.8633 8.0002C33.8633 8.0002 33.9633 7.9002 33.9633 8.0002C33.9633 7.9002 34.3633 8.1002 34.8633 7.9002Z" fill="#3A579B"/>
<path fill-rule="evenodd" clip-rule="evenodd" d="M4.56328 7.89981C4.46328 7.89981 4.46328 7.89981 4.56328 7.89981C5.56328 7.29981 5.26328 6.69981 5.96328 6.09981C6.66328 5.49981 7.66328 5.49981 7.86328 5.39981C9.06328 5.29981 9.36328 5.49981 9.46328 5.59981C9.66328 5.79981 10.0633 6.19981 10.2633 6.99981C10.4633 7.79981 10.3633 8.09981 10.1633 8.19981H10.0633C9.96329 8.19981 9.46328 7.99981 9.46328 7.99981C9.16328 8.09981 8.66328 8.29981 8.76328 9.39981C8.96328 10.8998 10.9633 11.1998 11.4633 11.1998L11.5633 11.3998C10.6633 11.3998 8.06328 11.0998 7.76328 9.79981C7.36328 8.49981 7.96328 7.99981 7.96328 7.99981C8.16328 7.79981 8.86328 7.79981 9.26328 7.89981C9.26328 7.89981 9.56328 7.59981 9.26328 6.89981C8.96328 5.59981 8.76328 5.69981 7.86328 5.69981C7.76328 5.69981 7.66328 5.69981 7.56328 5.79981C6.96328 6.19981 7.06328 6.99981 6.96328 7.49981C6.56328 9.29981 5.56328 9.29981 4.86328 9.49981C4.76328 9.49981 4.76328 9.39981 4.76328 9.39981C5.26328 8.99981 5.86328 8.39981 5.76328 7.79981C5.76328 7.79981 5.66328 7.69981 5.66328 7.79981C5.56328 7.89981 5.06328 8.09981 4.56328 7.89981Z" fill="#3A579B"/>
<path d="M31.1613 34.7L29.9613 35.7L28.7613 34.8C28.2613 35 27.9613 35.5 27.8613 36C27.1613 36.1 25.2613 35.7 25.4613 35.4C27.5613 32.5 25.9613 30.7 24.0613 30.8C23.7613 31.2 23.0613 31.8 22.3613 32.2C20.7613 33 20.0613 33.6 19.7613 33.8C19.5613 33.6 18.7613 33 17.1613 32.2C16.3613 31.8 15.7613 31.3 15.4613 30.8C13.5613 30.8 12.0613 32.5 14.1613 35.4C14.3613 35.7 12.3613 36.1 11.4613 36C11.2613 35.7 10.8613 35.6 10.4613 35.6C10.2613 35.6 10.1613 35.6 9.96134 35.7L6.26133 32.2V32.1C6.46133 31.7 6.16133 31.3 5.96133 31.3C6.16133 31 6.16133 29.8 4.86133 29.5C4.86133 29.7 4.96133 30.3 4.96133 30.3C4.96133 30.3 3.96133 29.8 3.46133 30.2C3.06133 30.7 3.66133 31.7 3.66133 31.7C3.66133 31.7 3.16133 31.7 2.86133 31.7C3.26133 33 4.46133 32.9 4.76133 32.6C4.76133 32.8 5.16133 33.1 5.56133 32.9L5.76133 32.8L9.36133 36.2C9.16133 36.4 9.16133 36.7 9.16133 37.1C9.26133 37.6 9.66133 38 10.1613 38.1C10.5613 38.2 10.8613 38.1 11.1613 37.9L12.0613 38.8C12.1613 38.9 12.2613 38.9 12.3613 38.9C12.5613 38.9 12.7613 38.7 12.7613 38.5C12.7613 38.4 12.6613 38.3 12.6613 38.3L11.6613 37.4C12.4613 36.9 13.8613 36.5 15.0613 36.5C15.2613 36.5 15.3613 36.3 15.2613 36.1C14.7613 34.8 15.8613 33.8 17.0613 34.6C17.3613 34.8 17.5613 35 17.8613 35.6C16.7613 36.1 14.6613 38.2 14.5613 38.7C14.9613 40 16.0613 40.5 16.0613 40.5C15.7613 39.9 15.8613 38.6 17.6613 37.7C16.5613 38.8 16.1613 39.8 16.4613 40.7C16.7613 41.5 17.5613 41.9 18.2613 41.9C17.7613 40.5 17.9613 39.2 18.9613 38.2C18.5613 39.3 17.9613 42.7 19.6613 43.3C21.2613 42.7 20.7613 39.3 20.3613 38.2C21.2613 39.2 21.4613 40.5 21.0613 41.9C21.6613 41.9 22.5613 41.5 22.8613 40.7C23.1613 39.8 22.7613 38.8 21.6613 37.7C23.4613 38.6 23.5613 39.9 23.2613 40.5C23.2613 40.5 24.4613 40.1 24.7613 38.7C24.6613 38.2 22.6613 36.2 21.5613 35.7C21.8613 35.1 22.0613 34.9 22.3613 34.7C23.5613 33.9 24.7613 34.9 24.1613 36.2C24.0613 36.4 24.1613 36.6 24.3613 36.6C25.7613 36.6 27.3613 37.1 28.0613 37.8C28.4613 38.4 29.2613 38.8 30.1613 38.8C31.1613 38.7 31.9613 37.9 32.0613 37C32.2613 35.9 31.7613 35.1 31.1613 34.7Z" fill="#3A579B"/>
<path d="M30.7621 34.0001L29.9621 33.1001L29.1621 34.0001L29.9621 34.7001L30.7621 34.0001Z" fill="#3A579B"/>
</svg>
