<svg width="40" height="39" viewBox="0 0 40 39" fill="none" xmlns="http://www.w3.org/2000/svg">
<path d="M27.0605 18.5998C27.0605 18.4998 27.1605 18.3998 27.2605 18.3998C27.3605 18.3998 27.3605 18.3998 27.4605 18.3998C28.6605 18.1998 29.8605 16.9998 29.9605 15.6998C29.9605 14.9998 29.7605 14.2998 29.3605 13.8998C29.2605 13.7998 29.2605 13.5998 29.4605 13.5998C29.5605 13.5998 29.5605 13.4998 29.5605 13.4998C33.4605 10.8998 36.4605 5.7998 36.7605 5.2998C36.7605 5.2998 36.7605 5.2998 36.8605 5.2998C37.9605 6.1998 38.1605 7.89981 37.1605 9.39981C36.4605 10.3998 34.8605 11.5998 33.0605 12.5998C33.0605 12.7998 33.0605 12.9998 33.0605 13.1998C36.6605 12.3998 38.6605 9.79981 38.9605 9.39981H39.0605C39.8605 10.6998 39.4605 12.4998 38.1605 13.2998C37.0605 13.9998 35.1605 14.3998 32.9605 14.6998C32.9605 14.8998 32.8605 15.0998 32.8605 15.2998C36.3605 15.7998 38.9605 14.3998 39.4605 14.1998H39.5605C39.8605 15.7998 39.0605 17.1998 37.4605 17.4998C35.8605 17.7998 32.4605 16.8998 32.4605 16.8998C32.3605 17.0998 32.3605 17.2998 32.2605 17.3998C34.5605 18.9998 37.7605 18.7998 38.2605 18.6998C38.2605 18.6998 38.3605 18.6998 38.3605 18.7998C38.4605 20.7998 36.8605 21.2998 35.4605 21.0998C34.2605 20.8998 32.5605 19.8998 31.4605 18.7998C31.3605 18.9998 31.1605 19.0998 31.0605 19.1998C32.1605 21.4998 34.8605 22.4998 35.7605 22.5998C35.7605 22.5998 35.8605 22.6998 35.7605 22.6998C35.1605 23.9998 33.8605 24.4998 32.3605 23.4998C31.4605 22.9998 30.4605 21.5998 29.8605 20.0998C29.6605 20.1998 29.5605 20.2998 29.3605 20.3998C29.6605 23.1998 31.8605 25.0998 32.2605 25.3998C32.2605 25.3998 32.2605 25.3998 32.2605 25.4998C32.2605 25.4998 32.2605 25.4998 32.2605 25.5998C31.5605 26.6998 29.8605 26.6998 28.9605 25.1998C28.4605 24.2998 28.0605 22.5998 27.9605 20.7998C27.7605 20.7998 27.5605 20.7998 27.3605 20.8998C27.2605 20.8998 27.1605 20.7998 27.1605 20.6998V18.5998H27.0605Z" fill="#3A579B"/>
<path d="M12.5621 18.5998C12.5621 18.4998 12.4621 18.3998 12.3621 18.3998C12.2621 18.3998 12.2621 18.3998 12.1621 18.3998C10.9621 18.0998 9.76214 16.9998 9.66214 15.6998C9.66214 14.9998 9.86214 14.2998 10.2621 13.8998C10.3621 13.7998 10.3621 13.5998 10.1621 13.5998C10.0621 13.5998 10.0621 13.4998 10.0621 13.4998C6.16214 10.8998 3.16214 5.7998 2.86214 5.2998C2.86214 5.2998 2.86214 5.2998 2.76214 5.2998C1.66214 6.0998 1.46214 7.89981 2.46214 9.39981C3.16214 10.3998 4.76215 11.5998 6.56214 12.5998C6.56214 12.7998 6.56214 12.9998 6.56214 13.1998C2.96214 12.3998 0.962144 9.79981 0.662146 9.39981H0.562146C-0.237854 10.6998 0.162146 12.4998 1.46214 13.2998C2.56214 13.9998 4.46214 14.3998 6.66214 14.6998C6.66214 14.8998 6.76214 15.0998 6.76214 15.2998C3.26214 15.7998 0.662146 14.3998 0.162146 14.1998H0.0621464C-0.237854 15.7998 0.562146 17.1998 2.16214 17.4998C3.76214 17.7998 7.16214 16.8998 7.16214 16.8998C7.26214 17.0998 7.26214 17.2998 7.36214 17.3998C5.06214 18.9998 1.86214 18.7998 1.36214 18.6998C1.36214 18.6998 1.26214 18.6998 1.26214 18.7998C1.16214 20.7998 2.76214 21.2998 4.16214 21.0998C5.36214 20.8998 7.06214 19.8998 8.16214 18.7998C8.26214 18.9998 8.46214 19.0998 8.56214 19.1998C7.46214 21.4998 4.76214 22.4998 3.86214 22.5998C3.86214 22.5998 3.76214 22.6998 3.86214 22.6998C4.46214 23.9998 5.76214 24.4998 7.26214 23.4998C8.16214 22.9998 9.16214 21.5998 9.76214 20.0998C9.96211 20.1998 10.0621 20.2998 10.2621 20.3998C9.96211 23.1998 7.76214 25.0998 7.36214 25.3998C7.36214 25.3998 7.36214 25.3998 7.36214 25.4998C7.36214 25.4998 7.36214 25.4998 7.36214 25.5998C8.06214 26.6998 9.76214 26.6998 10.6621 25.1998C11.1621 24.2998 11.5621 22.5998 11.6621 20.7998C11.8621 20.7998 12.0621 20.7998 12.2621 20.8998C12.3621 20.8998 12.4621 20.7998 12.4621 20.6998V18.5998H12.5621Z" fill="#3A579B"/>
<path d="M12.3619 6.4H14.9619C17.1619 6.4 18.2619 5 18.5619 3.8H20.8619C21.1619 5 22.1619 6.4 24.4619 6.4H27.1619C27.1619 6.4 27.6619 5.8 27.7619 5.5C28.1619 4.4 27.6619 3.8 26.8619 3.8L25.8619 4.7L24.8619 3.8C24.0619 3.8 23.5619 4.3 23.9619 5.5C24.0619 5.6 24.1619 5.9 24.2619 6C23.3619 5.9 22.0619 5.2 21.8619 3.8C21.8619 3.8 22.5619 2.7 22.7619 2.2C23.2619 0.7 22.4619 0 21.2619 0L19.7619 1.8L18.1619 0C16.9619 0 16.1619 0.7 16.7619 2.3C16.9619 2.8 17.6619 3.9 17.6619 3.9C17.3619 5.3 16.1619 5.9 15.2619 6.1C15.3619 5.9 15.5619 5.7 15.5619 5.6C15.9619 4.5 15.4619 3.9 14.6619 3.9L13.6619 4.8L12.6619 3.9C11.8619 3.9 11.3619 4.4 11.7619 5.6C11.8619 5.8 12.3619 6.4 12.3619 6.4Z" fill="#3A579B"/>
<path d="M16.6612 13.9001H19.1612C19.2612 13.9001 19.3612 13.8001 19.3612 13.7001C18.8612 11.7001 17.8612 10.1001 16.7612 9.2001C17.5612 8.8001 18.4612 7.7001 18.4612 7.1001C15.7612 8.1001 10.5612 6.6001 10.0612 8.8001C9.96117 9.3001 10.1612 10.0001 10.4612 10.2001C10.4612 10.0001 10.7612 9.5001 11.4612 9.4001C13.8612 9.0001 16.0612 11.4001 16.4612 13.7001C16.5612 13.8001 16.5612 13.9001 16.6612 13.9001Z" fill="#3A579B"/>
<path d="M29.4621 8.8001C28.9621 6.5001 23.6621 8.0001 21.0621 7.1001C20.9621 7.8001 21.8621 8.8001 22.7621 9.2001C21.7621 10.1001 20.7621 11.7001 20.1621 13.7001C20.1621 13.8001 20.2621 13.9001 20.3621 13.9001H22.8621C22.9621 13.9001 23.0621 13.8001 23.0621 13.8001C23.4621 11.5001 25.6621 9.2001 28.0621 9.5001C28.7621 9.6001 29.0621 10.1001 29.0621 10.3001C29.2621 10.0001 29.4621 9.3001 29.4621 8.8001Z" fill="#3A579B"/>
<path d="M22.8609 16.9998C21.4609 16.5998 19.7609 16.5998 19.7609 16.5998C19.7609 16.5998 18.0609 16.5998 16.6609 16.9998C15.1609 17.4998 13.6609 16.6998 13.1609 16.3998C13.0609 16.2998 12.9609 16.3998 12.9609 16.4998C13.0609 17.1998 13.6609 18.7998 16.0609 19.3998C18.3609 19.8998 19.3609 22.4998 19.6609 23.5998C19.6609 23.6998 19.8609 23.6998 19.9609 23.5998C20.2609 22.4998 21.3609 19.9998 23.5609 19.3998C25.9609 18.7998 26.5609 17.1998 26.6609 16.4998C26.6609 16.3998 26.5609 16.2998 26.4609 16.3998C25.8609 16.7998 24.4609 17.4998 22.8609 16.9998Z" fill="#3A579B"/>
<path d="M22.0605 21.5996C22.1605 21.6996 22.3605 21.7996 22.5605 21.7996C23.0605 21.7996 23.4605 21.3996 23.4605 20.8996C23.4605 20.7996 23.4605 20.6996 23.3605 20.5996C22.8605 20.7996 22.3605 21.1996 22.0605 21.5996Z" fill="#3A579B"/>
<path d="M24.3609 20.1998C24.4609 20.3998 24.5609 20.5998 24.5609 20.8998C24.5609 21.9998 23.6609 22.8998 22.5609 22.8998C22.1609 22.8998 21.7609 22.7998 21.4609 22.4998C21.2609 22.8998 21.0609 23.2998 20.9609 23.5998C21.4609 23.8998 21.9609 24.0998 22.5609 24.0998C24.2609 24.0998 25.6609 22.6998 25.6609 20.9998C25.6609 20.5998 25.5609 20.1998 25.3609 19.7998C25.1609 19.9998 24.7609 20.0998 24.3609 20.1998Z" fill="#3A579B"/>
<path d="M18.0617 22.5997C17.7617 22.7997 17.3617 22.8997 16.9617 22.8997C15.8617 22.8997 14.9617 21.9997 14.9617 20.8997C14.9617 20.6997 15.0617 20.3997 15.1617 20.1997C14.7617 20.0997 14.3617 19.8997 14.0617 19.6997C13.8617 20.0997 13.7617 20.4997 13.7617 20.8997C13.7617 22.5997 15.1617 23.9997 16.8617 23.9997C17.4617 23.9997 17.9617 23.7997 18.4617 23.4997C18.4617 23.2997 18.2617 22.9997 18.0617 22.5997Z" fill="#3A579B"/>
<path d="M16.1605 20.5996C16.1605 20.6996 16.0605 20.7996 16.0605 20.8996C16.0605 21.3996 16.4605 21.7996 16.9605 21.7996C17.1605 21.7996 17.3605 21.6996 17.4605 21.5996C17.1605 21.1996 16.7605 20.7996 16.1605 20.5996Z" fill="#3A579B"/>
<path fill-rule="evenodd" clip-rule="evenodd" d="M34.8633 2.9002C34.9633 2.9002 34.9633 2.9002 34.8633 2.9002C33.7633 2.3002 34.0633 1.6002 33.4633 1.0002C32.7633 0.400204 31.7633 0.400203 31.5633 0.300203C30.3633 0.200203 30.0633 0.400203 29.9633 0.500203C29.7633 0.700203 29.3633 1.1002 29.1633 1.9002C28.9633 2.7002 29.0633 3.0002 29.2633 3.1002H29.3633C29.4633 3.2002 29.9633 3.0002 29.9633 3.0002C30.2633 3.1002 30.7633 3.3002 30.6633 4.4002C30.5633 5.8002 28.5633 6.1002 27.9633 6.2002L27.8633 6.4002C28.7633 6.4002 31.3633 6.1002 31.6633 4.8002C32.0633 3.5002 31.4633 3.0002 31.4633 3.0002C31.2633 2.8002 30.5633 2.8002 30.1633 2.9002C30.1633 2.9002 29.8633 2.6002 30.1633 1.9002C30.5633 0.700204 30.7633 0.700204 31.6633 0.800204C31.7633 0.800204 31.8633 0.800203 31.9633 0.900203C32.5633 1.3002 32.4633 2.1002 32.6633 2.7002C33.0633 4.5002 34.0633 4.5002 34.7633 4.7002C34.8633 4.7002 34.8633 4.6002 34.8633 4.6002C34.3633 4.2002 33.7633 3.6002 33.8633 3.0002C33.8633 3.0002 33.9633 2.9002 33.9633 3.0002C33.9633 2.9002 34.3633 3.1002 34.8633 2.9002Z" fill="#3A579B"/>
<path fill-rule="evenodd" clip-rule="evenodd" d="M4.56328 2.89981C4.46328 2.89981 4.46328 2.89981 4.56328 2.89981C5.56328 2.29981 5.26328 1.69981 5.96328 1.09981C6.66328 0.499813 7.66328 0.499813 7.86328 0.399813C9.06328 0.299813 9.36328 0.499813 9.46328 0.599813C9.66328 0.799813 10.0633 1.19981 10.2633 1.99981C10.4633 2.79981 10.3633 3.09981 10.1633 3.19981H10.0633C9.96329 3.19981 9.46328 2.99981 9.46328 2.99981C9.16328 3.09981 8.66328 3.29981 8.76328 4.39981C8.96328 5.89981 10.9633 6.19981 11.4633 6.19981L11.5633 6.39981C10.6633 6.39981 8.06328 6.09981 7.76328 4.79981C7.36328 3.49981 7.96328 2.99981 7.96328 2.99981C8.16328 2.79981 8.86328 2.79981 9.26328 2.89981C9.26328 2.89981 9.56328 2.59981 9.26328 1.89981C8.96328 0.599813 8.76328 0.699813 7.86328 0.699813C7.76328 0.699813 7.66328 0.699813 7.56328 0.799813C6.96328 1.19981 7.06328 1.99981 6.96328 2.49981C6.56328 4.29981 5.56328 4.29981 4.86328 4.49981C4.76328 4.49981 4.76328 4.39981 4.76328 4.39981C5.26328 3.99981 5.86328 3.39981 5.76328 2.79981C5.76328 2.79981 5.66328 2.69981 5.66328 2.79981C5.56328 2.89981 5.06328 3.09981 4.56328 2.89981Z" fill="#3A579B"/>
<path d="M31.1613 29.7L29.9613 30.7L28.7613 29.8C28.2613 30 27.9613 30.5 27.8613 31C27.1613 31.1 25.2613 30.7 25.4613 30.4C27.5613 27.5 25.9613 25.7 24.0613 25.8C23.7613 26.2 23.0613 26.8 22.3613 27.2C20.7613 28 20.0613 28.6 19.7613 28.8C19.5613 28.6 18.7613 28 17.1613 27.2C16.3613 26.8 15.7613 26.3 15.4613 25.8C13.5613 25.8 12.0613 27.5 14.1613 30.4C14.3613 30.7 12.3613 31.1 11.4613 31C11.2613 30.7 10.8613 30.6 10.4613 30.6C10.2613 30.6 10.1613 30.6 9.96134 30.7L6.26133 27.2V27.1C6.46133 26.7 6.16133 26.3 5.96133 26.3C6.16133 26 6.16133 24.8 4.86133 24.5C4.86133 24.7 4.96133 25.3 4.96133 25.3C4.96133 25.3 3.96133 24.8 3.46133 25.2C3.06133 25.7 3.66133 26.7 3.66133 26.7C3.66133 26.7 3.16133 26.7 2.86133 26.7C3.26133 28 4.46133 27.9 4.76133 27.6C4.76133 27.8 5.16133 28.1 5.56133 27.9L5.76133 27.8L9.36133 31.2C9.16133 31.4 9.16133 31.7 9.16133 32.1C9.26133 32.6 9.66133 33 10.1613 33.1C10.5613 33.2 10.8613 33.1 11.1613 32.9L12.0613 33.8C12.1613 33.9 12.2613 33.9 12.3613 33.9C12.5613 33.9 12.7613 33.7 12.7613 33.5C12.7613 33.4 12.6613 33.3 12.6613 33.3L11.6613 32.4C12.4613 31.9 13.8613 31.5 15.0613 31.5C15.2613 31.5 15.3613 31.3 15.2613 31.1C14.7613 29.8 15.8613 28.8 17.0613 29.6C17.3613 29.8 17.5613 30 17.8613 30.6C16.7613 31.1 14.6613 33.2 14.5613 33.7C14.9613 35 16.0613 35.5 16.0613 35.5C15.7613 34.9 15.8613 33.6 17.6613 32.7C16.5613 33.8 16.1613 34.8 16.4613 35.7C16.7613 36.5 17.5613 36.9 18.2613 36.9C17.7613 35.5 17.9613 34.2 18.9613 33.2C18.5613 34.3 17.9613 37.7 19.6613 38.3C21.2613 37.7 20.7613 34.3 20.3613 33.2C21.2613 34.2 21.4613 35.5 21.0613 36.9C21.6613 36.9 22.5613 36.5 22.8613 35.7C23.1613 34.8 22.7613 33.8 21.6613 32.7C23.4613 33.6 23.5613 34.9 23.2613 35.5C23.2613 35.5 24.4613 35.1 24.7613 33.7C24.6613 33.2 22.6613 31.2 21.5613 30.7C21.8613 30.1 22.0613 29.9 22.3613 29.7C23.5613 28.9 24.7613 29.9 24.1613 31.2C24.0613 31.4 24.1613 31.6 24.3613 31.6C25.7613 31.6 27.3613 32.1 28.0613 32.8C28.4613 33.4 29.2613 33.8 30.1613 33.8C31.1613 33.7 31.9613 32.9 32.0613 32C32.2613 30.9 31.7613 30.1 31.1613 29.7Z" fill="#3A579B"/>
<path d="M30.7621 29.0001L29.9621 28.1001L29.1621 29.0001L29.9621 29.7001L30.7621 29.0001Z" fill="#3A579B"/>
</svg>
