<svg width="43" height="43" viewBox="0 0 43 43" fill="none" xmlns="http://www.w3.org/2000/svg">
<path d="M39.3987 11.73C39.3837 10.9614 39.3221 10.1943 39.2141 9.43313C39.0854 8.75606 38.8667 8.09926 38.5638 7.48021C37.9006 6.17104 36.8374 5.10728 35.5287 4.44334C34.9136 4.14182 34.261 3.9237 33.5883 3.79475C32.8213 3.68453 32.0482 3.62171 31.2735 3.60663C30.9456 3.59409 30.521 3.58871 30.3239 3.58871L12.6795 3.58334C12.4825 3.58334 12.0578 3.58871 11.73 3.60125C10.9613 3.61606 10.1942 3.67769 9.43304 3.78579C8.75598 3.91451 8.09918 4.13324 7.48013 4.43617C6.17103 5.09945 5.1073 6.16255 4.44325 7.47125C4.14182 8.08636 3.9237 8.73889 3.79467 9.41163C3.68395 10.1786 3.62052 10.9517 3.60475 11.7265C3.594 12.0543 3.58684 12.479 3.58684 12.676L3.58325 30.3204C3.58325 30.5175 3.58863 30.9421 3.60117 31.27C3.61598 32.0386 3.67761 32.8057 3.78571 33.5669C3.91444 34.2439 4.13318 34.9007 4.43609 35.5198C5.09936 36.8289 6.16247 37.8926 7.47117 38.5567C8.08629 38.8581 8.73882 39.0762 9.41154 39.2053C10.1786 39.3155 10.9516 39.3783 11.7264 39.3934C12.0543 39.4059 12.4789 39.4113 12.676 39.4113L30.3203 39.4149C30.5174 39.4149 30.942 39.4095 31.2699 39.397C32.0385 39.3821 32.8056 39.3205 33.5668 39.2124C34.2438 39.0836 34.9006 38.8649 35.5197 38.562C36.8295 37.8991 37.8939 36.8359 38.5584 35.527C38.8599 34.9119 39.078 34.2593 39.207 33.5866C39.3177 32.8196 39.3812 32.0465 39.3969 31.2718C39.4076 30.9439 39.4148 30.5193 39.4148 30.3222L39.4166 12.6796C39.4166 12.4825 39.4112 12.0579 39.3987 11.73ZM21.8887 33.9646H21.8833C19.7506 33.9642 17.652 33.4295 15.7791 32.4095L9.00663 34.185L10.8198 27.5684C9.41594 25.1323 8.855 22.3011 9.22395 19.5137C9.59291 16.7264 10.8711 14.1386 12.8605 12.1517C14.8498 10.1647 17.4391 8.88957 20.2268 8.52394C23.0146 8.1583 25.8451 8.72261 28.2796 10.1294C30.714 11.5361 32.6163 13.7067 33.6916 16.3046C34.7668 18.9026 34.955 21.7827 34.2268 24.4984C33.4987 27.2141 31.8949 29.6138 29.6642 31.3253C27.4334 33.0367 24.7004 33.9645 21.8887 33.9646Z" fill="#39F24B"/>
<path d="M21.8943 10.5726C19.9971 10.5721 18.1343 11.0798 16.4998 12.043C14.8653 13.0062 13.5187 14.3898 12.6 16.0497C11.6813 17.7097 11.2241 19.5855 11.2759 21.482C11.3278 23.3785 11.8868 25.2265 12.8947 26.8338L13.1474 27.2351L12.0742 31.1517L16.0929 30.0982L16.4799 30.3275C18.1158 31.2964 19.9822 31.8076 21.8835 31.8075H21.8889C24.7051 31.8079 27.4061 30.6897 29.3977 28.6987C31.3894 26.7077 32.5085 24.0071 32.509 21.1909C32.5095 18.3748 31.3912 15.6738 29.4003 13.6821C27.4093 11.6905 24.7086 10.5713 21.8925 10.5708L21.8943 10.5726ZM28.1365 25.748C27.9016 26.1359 27.589 26.4709 27.2184 26.7321C26.8478 26.9933 26.4271 27.1749 25.9829 27.2656C25.3121 27.3806 24.6238 27.3377 23.9726 27.1402C23.355 26.9477 22.748 26.7228 22.1541 26.4665C19.9498 25.3603 18.071 23.7001 16.702 21.6487C15.9552 20.6991 15.5019 19.5521 15.3977 18.3485C15.3891 17.8517 15.4841 17.3585 15.6765 16.9004C15.869 16.4423 16.1548 16.0294 16.5157 15.6878C16.6224 15.5662 16.753 15.4679 16.8995 15.3991C17.0459 15.3304 17.205 15.2926 17.3667 15.2883C17.5782 15.2883 17.7914 15.2883 17.9777 15.299C18.1748 15.308 18.4364 15.2238 18.6944 15.8473C18.9631 16.4851 19.601 18.0564 19.6798 18.2159C19.7304 18.2995 19.7593 18.3944 19.764 18.492C19.7687 18.5896 19.749 18.6868 19.7067 18.7749C19.6263 18.9666 19.5189 19.1457 19.3877 19.307C19.2265 19.4933 19.0527 19.7227 18.9094 19.866C18.7481 20.0255 18.5833 20.1975 18.7678 20.5164C19.2471 21.3371 19.8455 22.0821 20.5434 22.7273C21.3006 23.4005 22.1694 23.9365 23.1108 24.3111C23.4297 24.4724 23.6161 24.4437 23.8024 24.2305C23.9887 24.0173 24.5997 23.2988 24.8129 22.9799C25.0261 22.661 25.2375 22.7147 25.5296 22.8205C25.8216 22.9262 27.3929 23.6984 27.7118 23.8596C28.0307 24.0209 28.244 24.0979 28.3228 24.2305C28.4102 24.7437 28.3454 25.2712 28.1365 25.748Z" fill="#39F24B"/>
</svg>
